<svg width="101" height="101" viewBox="0 0 101 101" fill="none" xmlns="http://www.w3.org/2000/svg">
<path opacity="0.88" d="M70.3923 77.7401C81.5222 66.6101 81.5222 48.5649 70.3923 37.435L50.2397 17.2824L30.0872 37.435C18.9572 48.5649 18.9572 66.6101 30.0872 77.7401C41.2171 88.87 59.2623 88.87 70.3923 77.7401Z" fill="white" stroke="#9DE8FF" stroke-width="3"/>
<g clip-path="url(#clip0_28_6510)">
<path d="M33.2161 74.6111C23.8142 65.2092 23.8142 49.9658 33.2161 40.5639L50.2397 23.5403L67.2633 40.5639C76.6652 49.9658 76.6652 65.2092 67.2633 74.6111C57.8614 84.013 42.618 84.013 33.2161 74.6111Z" fill="white"/>
<rect opacity="0.88" x="17.7306" y="23.5403" width="65.0183" height="65.0183" fill="#9DE8FF"/>
</g>
<defs>
<clipPath id="clip0_28_6510">
<path d="M33.2161 74.6111C23.8142 65.2092 23.8142 49.9658 33.2161 40.5639L50.2397 23.5403L67.2633 40.5639C76.6652 49.9658 76.6652 65.2092 67.2633 74.6111C57.8614 84.013 42.618 84.013 33.2161 74.6111Z" fill="white"/>
</clipPath>
</defs>
</svg>
