<svg width="101" height="100" viewBox="0 0 101 100" fill="none" xmlns="http://www.w3.org/2000/svg">
<path d="M25.8016 31.2644C26.0932 27.0717 29.5795 23.8196 33.7823 23.8196H37.9005L49.4815 40.9957L61.0626 23.8196H65.1808C69.3836 23.8196 72.8698 27.0717 73.1615 31.2644L76.8707 84.5829H22.0924L25.8016 31.2644Z" fill="url(#paint0_linear_28_4904)"/>
<path d="M23.9209 28.417C24.9268 26.2676 26.8351 24.6757 29.1301 24.0715L40.5466 21.0661L16.8585 83.4636L1.23978 76.8819L23.9209 28.417Z" fill="#FCF2D1"/>
<path d="M23.9209 28.417C24.9268 26.2676 26.8351 24.6757 29.1301 24.0715L40.5466 21.0661L16.8585 83.4636L1.23978 76.8819L23.9209 28.417Z" fill="url(#paint1_linear_28_4904)"/>
<path d="M76.5584 28.417C75.5525 26.2676 73.6442 24.6757 71.3493 24.0715L59.9328 21.0661L83.6209 83.4636L99.2396 76.8819L76.5584 28.417Z" fill="#FCF2D1"/>
<path d="M76.5584 28.417C75.5525 26.2676 73.6442 24.6757 71.3493 24.0715L59.9328 21.0661L83.6209 83.4636L99.2396 76.8819L76.5584 28.417Z" fill="url(#paint2_linear_28_4904)"/>
<path fill-rule="evenodd" clip-rule="evenodd" d="M42.5706 21.4802H38.0186L49.4652 60.3348L60.9446 21.4802H56.393C55.8493 27.2821 52.962 31.7098 49.4818 31.7098C46.0016 31.7098 43.1143 27.2821 42.5706 21.4802Z" fill="white"/>
<path d="M41.3094 18.1126L48.1369 29.3937C48.4336 29.884 48.1812 30.4965 47.5957 30.7075L40.1528 33.3891L35.1271 21.3804C34.9299 20.9091 35.1906 20.3815 35.7173 20.1862L41.3094 18.1126Z" fill="#F0F6F6"/>
<path d="M41.3094 18.1126L48.1369 29.3937C48.4336 29.884 48.1812 30.4965 47.5957 30.7075L40.1528 33.3891L35.1271 21.3804C34.9299 20.9091 35.1906 20.3815 35.7173 20.1862L41.3094 18.1126Z" fill="url(#paint3_linear_28_4904)"/>
<path d="M57.6539 18.1126L50.8265 29.3937C50.5298 29.884 50.7821 30.4965 51.3677 30.7075L58.8106 33.3891L63.8363 21.3804C64.0335 20.9091 63.7728 20.3815 63.246 20.1862L57.6539 18.1126Z" fill="#F0F6F6"/>
<path d="M57.6539 18.1126L50.8265 29.3937C50.5298 29.884 50.7821 30.4965 51.3677 30.7075L58.8106 33.3891L63.8363 21.3804C64.0335 20.9091 63.7728 20.3815 63.246 20.1862L57.6539 18.1126Z" fill="url(#paint4_linear_28_4904)"/>
<defs>
<linearGradient id="paint0_linear_28_4904" x1="52.2404" y1="84.5829" x2="49.4816" y2="54.2012" gradientUnits="userSpaceOnUse">
<stop stop-color="white"/>
<stop offset="1" stop-color="#F5FBFF"/>
</linearGradient>
<linearGradient id="paint1_linear_28_4904" x1="34.9504" y1="18.7079" x2="9.04912" y2="80.1727" gradientUnits="userSpaceOnUse">
<stop stop-color="#F5FBFF"/>
<stop offset="1" stop-color="white"/>
</linearGradient>
<linearGradient id="paint2_linear_28_4904" x1="65.529" y1="18.7079" x2="91.4303" y2="80.1727" gradientUnits="userSpaceOnUse">
<stop stop-color="#F5FBFF"/>
<stop offset="1" stop-color="white"/>
</linearGradient>
<linearGradient id="paint3_linear_28_4904" x1="41.0771" y1="24.6935" x2="47.492" y2="28.522" gradientUnits="userSpaceOnUse">
<stop offset="0.317708" stop-color="white"/>
<stop offset="1" stop-color="#F5FBFF"/>
</linearGradient>
<linearGradient id="paint4_linear_28_4904" x1="57.8862" y1="24.6935" x2="51.4714" y2="28.522" gradientUnits="userSpaceOnUse">
<stop offset="0.317708" stop-color="white"/>
<stop offset="1" stop-color="#F5FBFF"/>
</linearGradient>
</defs>
</svg>
