<svg width="101" height="100" viewBox="0 0 101 100" fill="none" xmlns="http://www.w3.org/2000/svg">
<path d="M27.2125 25.6213C29.5039 21.8437 34.4238 20.6388 38.2015 22.9302L48.0071 28.8779L17.8853 78.5378L1.23959 68.4411L27.2125 25.6213Z" fill="#F6FBFF"/>
<path d="M73.2665 25.6213C70.9751 21.8437 66.0552 20.6388 62.2775 22.9302L52.4719 28.8779L82.5937 78.5378L99.2394 68.4411L73.2665 25.6213Z" fill="#F6FBFF"/>
<path d="M27.4254 27.7535C27.6944 23.5418 31.1888 20.2635 35.4091 20.2635L39.7449 20.2635C43.9651 20.2635 47.4596 23.5418 47.7286 27.7535L51.3574 84.5614H23.7966L27.4254 27.7535Z" fill="url(#paint0_linear_28_4905)"/>
<path d="M27.4254 27.7535C27.6944 23.5418 31.1888 20.2635 35.4091 20.2635L39.7449 20.2635C43.9651 20.2635 47.4596 23.5418 47.7286 27.7535L51.3574 84.5614H23.7966L27.4254 27.7535Z" fill="url(#paint1_linear_28_4905)"/>
<path d="M73.191 27.7535C72.9219 23.5418 69.4275 20.2635 65.2073 20.2635L60.8715 20.2635C56.6512 20.2635 53.1568 23.5418 52.8877 27.7535L49.259 84.5614H76.8197L73.191 27.7535Z" fill="url(#paint2_linear_28_4905)"/>
<path d="M58.1718 20.5555H42.7068L46.9858 43.5311L48.5545 84.5174H52.404L53.9328 43.5311L58.1718 20.5555Z" fill="url(#paint3_linear_28_4905)"/>
<path d="M43.2975 17.4456C43.2975 16.3802 44.2318 15.556 45.2889 15.689C48.7365 16.1226 52.2248 16.1226 55.6723 15.689C56.7294 15.556 57.6637 16.3802 57.6637 17.4456V20.9959L55.8461 21.2914C52.4529 21.843 48.9943 21.8611 45.5955 21.3449L43.2975 20.9959V17.4456Z" fill="#F5FBFF"/>
<path d="M64.2814 36.0218L62.8711 21.0817L57.6531 17.8228L54.1275 40.496L53.0798 75.2843L64.2814 40.4273L58.4349 37.5468L64.2814 36.0218Z" fill="#DAC5A5"/>
<path d="M64.2814 36.0218L62.8711 21.0817L57.6531 17.8228L54.1275 40.496L53.0798 75.2843L64.2814 40.4273L58.4349 37.5468L64.2814 36.0218Z" fill="white"/>
<path d="M36.7355 35.991L38.2036 21.0588L43.434 17.8285L46.8762 40.5209L47.7853 75.3146L36.7185 40.3964L42.5761 37.5481L36.7355 35.991Z" fill="#DAC5A5"/>
<path d="M36.7355 35.991L38.2036 21.0588L43.434 17.8285L46.8762 40.5209L47.7853 75.3146L36.7185 40.3964L42.5761 37.5481L36.7355 35.991Z" fill="white"/>
<defs>
<linearGradient id="paint0_linear_28_4905" x1="51.3573" y1="40.2577" x2="33.0626" y2="44.6078" gradientUnits="userSpaceOnUse">
<stop stop-color="#98AD5D"/>
<stop offset="1" stop-color="#C2CF9A"/>
</linearGradient>
<linearGradient id="paint1_linear_28_4905" x1="45.789" y1="46.5194" x2="6.5332" y2="63.2981" gradientUnits="userSpaceOnUse">
<stop stop-color="#F5FBFF"/>
<stop offset="1" stop-color="white"/>
</linearGradient>
<linearGradient id="paint2_linear_28_4905" x1="60.9848" y1="50.6349" x2="88.5272" y2="67.0971" gradientUnits="userSpaceOnUse">
<stop stop-color="#F5FBFF"/>
<stop offset="1" stop-color="white"/>
</linearGradient>
<linearGradient id="paint3_linear_28_4905" x1="50.4393" y1="20.5555" x2="50.4393" y2="84.5174" gradientUnits="userSpaceOnUse">
<stop stop-color="#E5EEF4"/>
<stop offset="1" stop-color="#F0F7FC"/>
</linearGradient>
</defs>
</svg>
