<svg width="101" height="100" viewBox="0 0 101 100" fill="none" xmlns="http://www.w3.org/2000/svg">
<path d="M30.7915 20.4324C34.9311 19.6972 38.8556 22.3204 39.7671 26.4318L42.8624 40.3943L15.3584 47.2006L10.6435 24.0108L30.7915 20.4324Z" fill="white"/>
<path d="M69.6876 20.4324C65.548 19.6972 61.6235 22.3204 60.7121 26.4318L57.6167 40.3943L85.1207 47.2006L89.8357 24.0108L69.6876 20.4324Z" fill="white"/>
<path fill-rule="evenodd" clip-rule="evenodd" d="M39.6332 19.9077H34.9983C30.784 19.9077 27.2924 23.177 27.0156 27.3821L23.3735 82.6956H76.9479L73.3059 27.3821C73.029 23.177 69.5374 19.9077 65.3232 19.9077H60.7502C58.7439 23.9003 54.7684 26.6194 50.1917 26.6194C45.615 26.6194 41.6394 23.9003 39.6332 19.9077Z" fill="url(#paint0_linear_28_4903)"/>
<defs>
<linearGradient id="paint0_linear_28_4903" x1="50.1607" y1="19.9077" x2="50.1607" y2="82.6956" gradientUnits="userSpaceOnUse">
<stop offset="0.270833" stop-color="white"/>
<stop offset="1" stop-color="#F4FBFF"/>
</linearGradient>
</defs>
</svg>
