<svg width="101" height="100" viewBox="0 0 101 100" fill="none" xmlns="http://www.w3.org/2000/svg">
<path d="M54.6531 26.2267H47.1781L38.4218 46.925L43.7365 83.8489H56.7772L61.9566 46.925L54.6531 26.2267Z" fill="#E5EEF4"/>
<path d="M26.8416 37.0566C29.6539 33.649 34.6962 33.1664 38.1038 35.9787L41.5902 38.856L11.8661 74.872L2.20973 66.9026L26.8416 37.0566Z" fill="white"/>
<path d="M23.5822 35.9299C27.3321 31.3862 32.7427 28.5299 38.6098 27.9968C41.4889 27.7352 43.6132 30.6292 42.5007 33.2975L36.5455 47.5805C35.5121 50.059 32.3785 50.8355 30.3075 49.1262L22.9137 43.0241C21.2098 41.6179 20.9685 39.0968 22.3747 37.393L23.5822 35.9299Z" fill="url(#paint0_linear_28_4906)"/>
<path d="M17.1691 42.8873C18.9268 40.7575 22.0782 40.4559 24.208 42.2136L31.1358 47.9311C33.2656 49.6888 33.5672 52.8403 31.8095 54.97L27.3063 60.4264C25.5486 62.5562 22.3972 62.8578 20.2674 61.1001L13.3396 55.3826C11.2098 53.6249 10.9082 50.4735 12.6659 48.3437L17.1691 42.8873Z" fill="url(#paint1_linear_28_4906)"/>
<path d="M7.80955 54.595C9.56726 52.4652 12.7187 52.1636 14.8485 53.9213L21.7763 59.6388C23.9061 61.3965 24.2077 64.548 22.45 66.6777L18.3538 71.6409C16.5961 73.7707 13.4447 74.0723 11.3149 72.3146L4.38712 66.5971C2.25734 64.8394 1.95572 61.688 3.71342 59.5582L7.80955 54.595Z" fill="url(#paint2_linear_28_4906)"/>
<path d="M73.638 37.0566C70.8257 33.649 65.7834 33.1664 62.3758 35.9787L58.8895 38.856L88.6135 74.872L98.2699 66.9026L73.638 37.0566Z" fill="white"/>
<path d="M76.8974 35.9299C73.1475 31.3862 67.7369 28.5299 61.8698 27.9968C58.9907 27.7352 56.8665 30.6292 57.979 33.2975L63.9341 47.5805C64.9675 50.059 68.1011 50.8355 70.1721 49.1262L77.5659 43.0241C79.2698 41.6179 79.5111 39.0968 78.1049 37.393L76.8974 35.9299Z" fill="url(#paint3_linear_28_4906)"/>
<path d="M83.3105 42.8873C81.5528 40.7575 78.4014 40.4559 76.2716 42.2136L69.3438 47.9311C67.214 49.6888 66.9124 52.8403 68.6701 54.97L73.1733 60.4264C74.931 62.5562 78.0824 62.8578 80.2122 61.1001L87.14 55.3826C89.2698 53.6249 89.5714 50.4735 87.8137 48.3437L83.3105 42.8873Z" fill="url(#paint4_linear_28_4906)"/>
<path d="M92.6701 54.595C90.9124 52.4652 87.7609 52.1636 85.6312 53.9213L78.7033 59.6388C76.5736 61.3965 76.2719 64.548 78.0296 66.6777L82.1258 71.6409C83.8835 73.7707 87.0349 74.0723 89.1647 72.3146L96.0925 66.5971C98.2223 64.8394 98.5239 61.688 96.7662 59.5582L92.6701 54.595Z" fill="url(#paint5_linear_28_4906)"/>
<path d="M32.4222 33.4037C32.6672 29.2367 36.1179 25.9829 40.2922 25.9829C44.4664 25.9829 47.9172 29.2367 48.1622 33.4037L50.8822 79.6636H29.7022L32.4222 33.4037Z" fill="url(#paint6_linear_28_4906)"/>
<path d="M67.7296 33.4037C67.4846 29.2367 64.0338 25.9829 59.8596 25.9829C55.6853 25.9829 52.2346 29.2367 51.9896 33.4037L49.2696 79.6636H70.4496L67.7296 33.4037Z" fill="white"/>
<path d="M24.5111 69.4049C24.6758 66.7698 26.8611 64.7169 29.5014 64.7169L43.1966 64.7169C45.9581 64.7169 48.1966 66.9554 48.1966 69.7169L48.1966 78.8489C48.1966 81.6103 45.9581 83.8489 43.1966 83.8489L28.9306 83.8489C26.0464 83.8489 23.7604 81.4155 23.9403 78.537L24.5111 69.4049Z" fill="url(#paint7_linear_28_4906)"/>
<path d="M25.575 51.8626C25.8135 49.8496 27.5201 48.3333 29.5472 48.3333L43.0309 48.3333C45.2401 48.3333 47.0309 50.1241 47.0309 52.3332L47.0309 63.4653C47.0309 65.6744 45.2401 67.4653 43.0309 67.4653L28.2282 67.4653C25.8325 67.4653 23.9741 65.3737 24.256 62.9946L25.575 51.8626Z" fill="url(#paint8_linear_28_4906)"/>
<path d="M27.9581 34.8887C28.1724 32.853 29.8891 31.3076 31.9361 31.3076L43.031 31.3076C45.2401 31.3076 47.031 33.0985 47.031 35.3076L47.031 46.4396C47.031 48.6488 45.2401 50.4396 43.031 50.4396L30.7639 50.4396C28.389 50.4396 26.5372 48.3826 26.7859 46.0208L27.9581 34.8887Z" fill="url(#paint9_linear_28_4906)"/>
<path d="M77.3273 69.3833C77.1517 66.7572 74.9703 64.7169 72.3384 64.7169L56.9903 64.7169C54.2289 64.7169 51.9903 66.9554 51.9903 69.7169L51.9903 78.8489C51.9903 81.6103 54.2289 83.8489 56.9903 83.8489L72.949 83.8489C75.8418 83.8489 78.1309 81.4016 77.9379 78.5153L77.3273 69.3833Z" fill="url(#paint10_linear_28_4906)"/>
<path d="M74.4682 51.8626C74.2297 49.8496 72.5231 48.3333 70.496 48.3333L57.0123 48.3333C54.8031 48.3333 53.0123 50.1241 53.0123 52.3332L53.0123 63.4653C53.0123 65.6744 54.8031 67.4653 57.0123 67.4653L71.815 67.4653C74.2107 67.4653 76.0691 65.3737 75.7872 62.9946L74.4682 51.8626Z" fill="url(#paint11_linear_28_4906)"/>
<path d="M71.9406 34.8887C71.7263 32.853 70.0096 31.3076 67.9626 31.3076L56.8677 31.3076C54.6586 31.3076 52.8677 33.0985 52.8677 35.3076L52.8677 46.4396C52.8677 48.6488 54.6586 50.4396 56.8677 50.4396L69.1348 50.4396C71.5096 50.4396 73.3615 48.3826 73.1128 46.0208L71.9406 34.8887Z" fill="url(#paint12_linear_28_4906)"/>
<path d="M57.1681 26.2267H43.075L46.9744 46.925L48.404 83.8489H51.9119L53.3051 46.925L57.1681 26.2267Z" fill="#E5EEF4"/>
<path d="M60.8667 54.9023C61.9688 54.6147 62.6086 53.4662 62.273 52.3778L58.9307 41.5378C58.4395 39.9447 58.1089 38.3064 57.9438 36.6474L57.0138 27.3023C56.7705 24.8574 54.401 23.2077 52.0236 23.828L47.5418 24.9973C43.8612 25.9576 41.3658 29.3767 41.5734 33.1748L41.9041 39.2259C42.0324 41.574 42.4914 43.8922 43.2675 46.112L46.642 55.7644C47.1577 57.2395 48.7193 58.0717 50.2313 57.6772L60.8667 54.9023Z" fill="#F5FBFF"/>
<path d="M34.4484 31.8171C33.4178 27.1435 36.7565 22.6376 41.5277 22.2629L46.4757 21.8743C48.7834 21.6931 51.0548 21.1922 53.2246 20.3861L62.0585 17.1042C64.3355 16.2583 66.8346 17.6205 67.3577 19.9925L68.1342 23.5137C68.9676 27.2933 66.9758 31.1275 63.4042 32.6188L57.8909 34.9208C55.2277 36.0328 52.392 36.6752 49.5096 36.8196L41.5279 37.2196C38.1658 37.3881 35.1733 35.1045 34.4484 31.8171Z" fill="#E5EEF4"/>
<path d="M69.4911 28.4952C69.9986 23.6888 66.1614 19.5289 61.3298 19.6534L54.9449 19.8179C52.7599 19.8742 50.5769 19.6437 48.4518 19.1322L37.8073 16.5706C35.4578 16.0052 33.1473 17.6363 32.8935 20.0396L32.4955 23.8089C32.086 27.6875 34.533 31.2961 38.2878 32.3509L45.4092 34.3514C48.0336 35.0886 50.7609 35.3916 53.4831 35.2485L62.8971 34.7534C66.3338 34.5727 69.1297 31.9177 69.4911 28.4952Z" fill="#F5FBFF"/>
<defs>
<linearGradient id="paint0_linear_28_4906" x1="43.7375" y1="26.4192" x2="27.1488" y2="46.5194" gradientUnits="userSpaceOnUse">
<stop offset="0.505208" stop-color="white"/>
<stop offset="1" stop-color="#F5FBFF"/>
</linearGradient>
<linearGradient id="paint1_linear_28_4906" x1="27.6719" y1="45.0724" x2="16.8035" y2="58.2414" gradientUnits="userSpaceOnUse">
<stop offset="0.505208" stop-color="white"/>
<stop offset="1" stop-color="#F5FBFF"/>
</linearGradient>
<linearGradient id="paint2_linear_28_4906" x1="18.3124" y1="56.7801" x2="7.85103" y2="69.4559" gradientUnits="userSpaceOnUse">
<stop offset="0.505208" stop-color="white"/>
<stop offset="1" stop-color="#F5FBFF"/>
</linearGradient>
<linearGradient id="paint3_linear_28_4906" x1="56.7421" y1="26.4192" x2="73.3308" y2="46.5194" gradientUnits="userSpaceOnUse">
<stop offset="0.505208" stop-color="white"/>
<stop offset="1" stop-color="#F5FBFF"/>
</linearGradient>
<linearGradient id="paint4_linear_28_4906" x1="72.8077" y1="45.0724" x2="83.6761" y2="58.2414" gradientUnits="userSpaceOnUse">
<stop offset="0.505208" stop-color="white"/>
<stop offset="1" stop-color="#F5FBFF"/>
</linearGradient>
<linearGradient id="paint5_linear_28_4906" x1="82.1672" y1="56.7801" x2="92.6286" y2="69.4559" gradientUnits="userSpaceOnUse">
<stop offset="0.505208" stop-color="white"/>
<stop offset="1" stop-color="#F5FBFF"/>
</linearGradient>
<linearGradient id="paint6_linear_28_4906" x1="48.4749" y1="42.316" x2="35.9776" y2="45.7404" gradientUnits="userSpaceOnUse">
<stop stop-color="#F5FBFF"/>
<stop offset="0.453125" stop-color="white"/>
</linearGradient>
<linearGradient id="paint7_linear_28_4906" x1="35.9025" y1="64.7169" x2="35.9025" y2="83.8489" gradientUnits="userSpaceOnUse">
<stop offset="0.505208" stop-color="white"/>
<stop offset="1" stop-color="#F5FBFF"/>
</linearGradient>
<linearGradient id="paint8_linear_28_4906" x1="35.3786" y1="48.3333" x2="35.3786" y2="67.4653" gradientUnits="userSpaceOnUse">
<stop offset="0.505208" stop-color="white"/>
<stop offset="1" stop-color="#F5FBFF"/>
</linearGradient>
<linearGradient id="paint9_linear_28_4906" x1="36.6758" y1="31.3076" x2="36.6758" y2="50.4396" gradientUnits="userSpaceOnUse">
<stop offset="0.505208" stop-color="white"/>
<stop offset="1" stop-color="#F5FBFF"/>
</linearGradient>
<linearGradient id="paint10_linear_28_4906" x1="65.1424" y1="64.7169" x2="65.1424" y2="83.8489" gradientUnits="userSpaceOnUse">
<stop offset="0.505208" stop-color="white"/>
<stop offset="1" stop-color="#F5FBFF"/>
</linearGradient>
<linearGradient id="paint11_linear_28_4906" x1="64.6646" y1="48.3333" x2="64.6646" y2="67.4653" gradientUnits="userSpaceOnUse">
<stop offset="0.505208" stop-color="white"/>
<stop offset="1" stop-color="#F5FBFF"/>
</linearGradient>
<linearGradient id="paint12_linear_28_4906" x1="63.2229" y1="31.3076" x2="63.2229" y2="50.4396" gradientUnits="userSpaceOnUse">
<stop offset="0.505208" stop-color="white"/>
<stop offset="1" stop-color="#F5FBFF"/>
</linearGradient>
</defs>
</svg>
