<svg width="181" height="181" viewBox="0 0 181 181" fill="none" xmlns="http://www.w3.org/2000/svg">
<path d="M126.004 48.1169H125.637C122.329 40.2576 116.606 33.6541 109.298 29.2613C101.989 24.8685 93.4725 22.9139 84.9797 23.6802C76.4869 24.4466 68.4579 27.894 62.0535 33.5242C55.6492 39.1544 51.2013 46.6755 49.3532 55.0001C32.9804 56.4023 20.7044 70.5881 21.6674 86.9915C22.5872 103.141 36.3734 115.557 52.5536 115.557H126.004C130.552 115.748 135.091 115.018 139.348 113.409C143.606 111.8 147.494 109.347 150.779 106.197C154.064 103.047 156.678 99.2654 158.464 95.0791C160.249 90.8928 161.17 86.3885 161.17 81.8372C161.17 77.2859 160.249 72.7816 158.464 68.5953C156.678 64.4089 154.064 60.627 150.779 57.477C147.494 54.327 143.606 51.8739 139.348 50.2654C135.091 48.6568 130.552 47.926 126.004 48.1169Z" fill="url(#paint0_linear_33_4246)"/>
<path opacity="0.05" d="M126.004 48.1169H125.637C122.329 40.2576 116.606 33.6541 109.298 29.2613C101.989 24.8685 93.4725 22.9139 84.9797 23.6802C76.4869 24.4466 68.4579 27.894 62.0535 33.5242C55.6492 39.1544 51.2013 46.6755 49.3532 55.0001C32.9804 56.4023 20.7044 70.5881 21.6674 86.9915C22.5872 103.141 36.3734 115.557 52.5536 115.557H126.004C130.552 115.748 135.091 115.018 139.348 113.409C143.606 111.8 147.494 109.347 150.779 106.197C154.064 103.047 156.678 99.2654 158.464 95.0791C160.249 90.8928 161.17 86.3885 161.17 81.8372C161.17 77.2859 160.249 72.7816 158.464 68.5953C156.678 64.4089 154.064 60.627 150.779 57.477C147.494 54.327 143.606 51.8739 139.348 50.2654C135.091 48.6568 130.552 47.926 126.004 48.1169Z" fill="#A3A5AA"/>
<path opacity="0.35" d="M128.758 63.6941C128.758 71.6437 126.4 79.4146 121.983 86.0237C117.565 92.6329 111.287 97.7832 103.941 100.823C96.596 103.863 88.514 104.656 80.7179 103.102C72.9218 101.547 65.762 97.7153 60.1442 92.0907C54.5264 86.4661 50.7032 79.3016 49.1582 71.5036C47.6132 63.7056 48.4159 55.6246 51.4647 48.2829C54.5135 40.9413 59.6715 34.6689 66.286 30.2593C72.9005 25.8498 80.6742 23.5013 88.6238 23.5109C110.798 23.5343 128.76 41.5199 128.755 63.6941H128.758Z" fill="url(#paint1_linear_33_4246)"/>
<path opacity="0.25" d="M126.006 115.556C144.629 115.556 159.726 100.459 159.726 81.8363C159.726 63.2136 144.629 48.1169 126.006 48.1169C107.383 48.1169 92.2867 63.2136 92.2867 81.8363C92.2867 100.459 107.383 115.556 126.006 115.556Z" fill="url(#paint2_linear_33_4246)"/>
<path d="M70.6994 95.8799C72.332 95.8799 73.6694 97.1579 73.7612 98.7671L73.7666 98.9471V117.069C73.7593 117.863 73.445 118.623 72.8896 119.189C72.3342 119.756 71.5809 120.086 70.7878 120.109C69.9946 120.132 69.2233 119.847 68.6356 119.314C68.0479 118.781 67.6896 118.041 67.6358 117.249L67.6304 117.069V98.9489C67.6304 97.2551 69.0038 95.8799 70.6994 95.8799Z" fill="url(#paint3_linear_33_4246)"/>
<path d="M85.9634 121.652C87.596 121.652 88.9334 122.93 89.0252 124.539L89.0306 124.719V130.857C89.0233 131.651 88.709 132.411 88.1536 132.977C87.5982 133.544 86.8449 133.874 86.0518 133.897C85.2586 133.92 84.4873 133.635 83.8996 133.102C83.3119 132.569 82.9536 131.829 82.8998 131.037L82.8944 130.857V124.719C82.8944 123.026 84.2678 121.652 85.9634 121.652ZM116.491 118.052C118.124 118.052 119.461 119.33 119.553 120.939L119.559 121.119V127.257C119.551 128.051 119.237 128.811 118.682 129.377C118.126 129.944 117.373 130.274 116.58 130.297C115.787 130.32 115.015 130.035 114.428 129.502C113.84 128.969 113.482 128.229 113.428 127.437L113.422 127.257V121.119C113.422 119.426 114.796 118.052 116.491 118.052ZM70.6994 123.452C72.332 123.452 73.6694 124.73 73.7612 126.339L73.7666 126.519V132.657C73.7593 133.451 73.445 134.211 72.8896 134.777C72.3342 135.344 71.5809 135.674 70.7878 135.697C69.9946 135.72 69.2233 135.435 68.6356 134.902C68.0479 134.369 67.6896 133.629 67.6358 132.837L67.6304 132.657V126.519C67.6304 124.826 69.0038 123.452 70.6994 123.452Z" fill="url(#paint4_linear_33_4246)"/>
<path d="M101.227 99.4799C102.86 99.4799 104.197 100.758 104.289 102.367L104.295 102.547V126.069C104.287 126.863 103.973 127.623 103.418 128.189C102.862 128.756 102.109 129.086 101.316 129.109C100.523 129.132 99.7513 128.847 99.1636 128.314C98.5759 127.781 98.2176 127.041 98.1637 126.249L98.1583 126.069V102.549C98.1583 100.855 99.5317 99.4799 101.227 99.4799Z" fill="url(#paint5_linear_33_4246)"/>
<path d="M101.227 132.452C102.86 132.452 104.197 133.73 104.289 135.339L104.295 135.519V141.657C104.287 142.451 103.973 143.211 103.418 143.777C102.862 144.344 102.109 144.674 101.316 144.697C100.523 144.72 99.7513 144.435 99.1636 143.902C98.5759 143.369 98.2176 142.629 98.1637 141.837L98.1583 141.657V135.519C98.1583 133.826 99.5317 132.452 101.227 132.452Z" fill="url(#paint6_linear_33_4246)"/>
<defs>
<linearGradient id="paint0_linear_33_4246" x1="-3420.1" y1="1049.36" x2="5615.51" y2="9374.84" gradientUnits="userSpaceOnUse">
<stop stop-color="#E9E9ED"/>
<stop offset="1" stop-color="#DEDFE3"/>
</linearGradient>
<linearGradient id="paint1_linear_33_4246" x1="645.756" y1="618.705" x2="4098.46" y2="4072.45" gradientUnits="userSpaceOnUse">
<stop stop-color="white"/>
<stop offset="1" stop-color="white" stop-opacity="0"/>
</linearGradient>
<linearGradient id="paint2_linear_33_4246" x1="576.025" y1="531.855" x2="2751.4" y2="2707.23" gradientUnits="userSpaceOnUse">
<stop stop-color="white"/>
<stop offset="1" stop-color="white" stop-opacity="0"/>
</linearGradient>
<linearGradient id="paint3_linear_33_4246" x1="374.44" y1="2834.96" x2="374.44" y2="-220.157" gradientUnits="userSpaceOnUse">
<stop stop-color="#61ADFF" stop-opacity="0.6"/>
<stop offset="0.11" stop-color="#5DA9FF" stop-opacity="0.73"/>
<stop offset="0.23" stop-color="#5AA6FF" stop-opacity="0.83"/>
<stop offset="0.36" stop-color="#57A4FF" stop-opacity="0.9"/>
<stop offset="0.5" stop-color="#55A2FF" stop-opacity="0.96"/>
<stop offset="0.68" stop-color="#54A1FF" stop-opacity="0.99"/>
<stop offset="1" stop-color="#54A1FF"/>
</linearGradient>
<linearGradient id="paint4_linear_33_4246" x1="2664.04" y1="2764.95" x2="2664.04" y2="-764.248" gradientUnits="userSpaceOnUse">
<stop stop-color="#61ADFF"/>
<stop offset="1" stop-color="#54A1FF"/>
</linearGradient>
<linearGradient id="paint5_linear_33_4246" x1="404.968" y1="3448.99" x2="404.968" y2="-286.989" gradientUnits="userSpaceOnUse">
<stop stop-color="#61ADFF" stop-opacity="0.6"/>
<stop offset="0.11" stop-color="#5DA9FF" stop-opacity="0.73"/>
<stop offset="0.23" stop-color="#5AA6FF" stop-opacity="0.83"/>
<stop offset="0.36" stop-color="#57A4FF" stop-opacity="0.9"/>
<stop offset="0.5" stop-color="#55A2FF" stop-opacity="0.96"/>
<stop offset="0.68" stop-color="#54A1FF" stop-opacity="0.99"/>
<stop offset="1" stop-color="#54A1FF"/>
</linearGradient>
<linearGradient id="paint6_linear_33_4246" x1="404.968" y1="1969.35" x2="404.968" y2="-479.848" gradientUnits="userSpaceOnUse">
<stop stop-color="#61ADFF"/>
<stop offset="1" stop-color="#54A1FF"/>
</linearGradient>
</defs>
</svg>
