<svg width="181" height="181" viewBox="0 0 181 181" fill="none" xmlns="http://www.w3.org/2000/svg">
<g opacity="0.6">
<path d="M105.501 148.375C107.133 148.375 108.471 149.653 108.562 151.264L108.568 151.444V161.672C108.568 163.364 107.194 164.739 105.501 164.739C103.866 164.739 102.531 163.461 102.437 161.852L102.432 161.672V151.442C102.432 149.748 103.805 148.373 105.502 148.373L105.501 148.375Z" fill="url(#paint0_linear_33_4247)"/>
</g>
<path d="M105.501 92.1269C107.133 92.1269 108.471 93.4031 108.562 95.0141L108.568 95.1941V141.217C108.568 142.91 107.194 144.286 105.501 144.286C103.866 144.286 102.531 143.008 102.437 141.397L102.432 141.217V95.1941C102.432 93.4985 103.805 92.1269 105.501 92.1269Z" fill="url(#paint1_linear_33_4247)"/>
<path d="M76.8644 92.3608C78.497 92.3608 79.8344 93.6388 79.9262 95.248L79.9316 95.428V155.535C79.9316 157.229 78.5582 158.603 76.8644 158.603C75.23 158.603 73.8944 157.325 73.8008 155.715L73.7954 155.535V95.4298C73.7954 93.7342 75.1688 92.3608 76.8644 92.3608Z" fill="url(#paint2_linear_33_4247)"/>
<path d="M126.004 46.6444H125.637C118.851 30.5164 102.406 20.6326 84.9788 22.204C67.5512 23.7772 53.1422 36.4438 49.3514 53.5276C32.9804 54.9298 20.7044 69.1156 21.6674 85.519C22.5872 101.667 36.3734 114.085 52.5536 114.085H126.004C138.394 114.612 150.076 108.303 156.428 97.6528C162.782 87.0022 162.782 73.7254 156.428 63.0748C150.074 52.4242 138.394 46.117 126.004 46.6444Z" fill="url(#paint3_linear_33_4247)"/>
<path opacity="0.5" d="M128.758 62.2217C128.758 78.4775 118.961 93.1331 103.94 99.3503C88.9172 105.567 71.63 102.119 60.1424 90.6167C48.653 79.1147 45.2294 61.8221 51.4646 46.8083C57.6998 31.7963 72.3679 22.0169 88.6255 22.0385C110.8 22.0601 128.762 40.0457 128.757 62.2217H128.758Z" fill="url(#paint4_linear_33_4247)"/>
<path opacity="0.25" d="M126.006 114.083C144.629 114.083 159.726 98.9866 159.726 80.3639C159.726 61.7412 144.629 46.6445 126.006 46.6445C107.383 46.6445 92.2867 61.7412 92.2867 80.3639C92.2867 98.9866 107.383 114.083 126.006 114.083Z" fill="url(#paint5_linear_33_4247)"/>
<path d="M119.818 87.0112C121.452 87.0112 122.788 88.2892 122.881 89.9002L122.887 90.0802V133.035C122.887 134.729 121.513 136.103 119.818 136.103C118.183 136.103 116.848 134.825 116.756 133.215L116.751 133.035V90.0802C116.751 88.3864 118.124 87.0112 119.818 87.0112Z" fill="url(#paint6_linear_33_4247)"/>
<path d="M91.1816 81.8993C92.816 81.8993 94.1516 83.1773 94.2452 84.7865L94.2506 84.9665V151.444C94.2506 153.138 92.8754 154.511 91.1816 154.511C89.5472 154.511 88.2116 153.233 88.118 151.624L88.1144 151.444V84.9665C88.1144 83.2727 89.4878 81.8993 91.1816 81.8993Z" fill="url(#paint7_linear_33_4247)"/>
<path d="M62.5453 87.0112C64.1797 87.0112 65.5153 88.2892 65.6089 89.9002L65.6143 90.0802V121.785C65.6143 123.479 64.2391 124.853 62.5453 124.853C60.9109 124.853 59.5753 123.575 59.4817 121.965L59.4763 121.785V90.0802C59.4763 88.3864 60.8515 87.0112 62.5453 87.0112Z" fill="url(#paint8_linear_33_4247)"/>
<path d="M62.5453 128.944C64.1797 128.944 65.5153 130.222 65.6089 131.831L65.6143 132.011V140.194C65.6143 141.888 64.2391 143.261 62.5453 143.261C60.9109 143.261 59.5753 141.983 59.4817 140.374L59.4763 140.194V132.011C59.4763 130.317 60.8515 128.944 62.5453 128.944Z" fill="url(#paint9_linear_33_4247)"/>
<defs>
<linearGradient id="paint0_linear_33_4247" x1="409.242" y1="2275.9" x2="409.242" y2="-342.595" gradientUnits="userSpaceOnUse">
<stop stop-color="#61ADFF" stop-opacity="0.6"/>
<stop offset="0.11" stop-color="#5DA9FF" stop-opacity="0.73"/>
<stop offset="0.23" stop-color="#5AA6FF" stop-opacity="0.83"/>
<stop offset="0.36" stop-color="#57A4FF" stop-opacity="0.9"/>
<stop offset="0.5" stop-color="#55A2FF" stop-opacity="0.96"/>
<stop offset="0.68" stop-color="#54A1FF" stop-opacity="0.99"/>
<stop offset="1" stop-color="#54A1FF"/>
</linearGradient>
<linearGradient id="paint1_linear_33_4247" x1="409.242" y1="5655.92" x2="409.242" y2="-255.628" gradientUnits="userSpaceOnUse">
<stop stop-color="#61ADFF" stop-opacity="0.6"/>
<stop offset="0.11" stop-color="#5DA9FF" stop-opacity="0.73"/>
<stop offset="0.23" stop-color="#5AA6FF" stop-opacity="0.83"/>
<stop offset="0.36" stop-color="#57A4FF" stop-opacity="0.9"/>
<stop offset="0.5" stop-color="#55A2FF" stop-opacity="0.96"/>
<stop offset="0.68" stop-color="#54A1FF" stop-opacity="0.99"/>
<stop offset="1" stop-color="#54A1FF"/>
</linearGradient>
<linearGradient id="paint2_linear_33_4247" x1="380.605" y1="7054.71" x2="380.605" y2="-245.804" gradientUnits="userSpaceOnUse">
<stop stop-color="#61ADFF" stop-opacity="0.6"/>
<stop offset="0.11" stop-color="#5DA9FF" stop-opacity="0.73"/>
<stop offset="0.23" stop-color="#5AA6FF" stop-opacity="0.83"/>
<stop offset="0.36" stop-color="#57A4FF" stop-opacity="0.9"/>
<stop offset="0.5" stop-color="#55A2FF" stop-opacity="0.96"/>
<stop offset="0.68" stop-color="#54A1FF" stop-opacity="0.99"/>
<stop offset="1" stop-color="#54A1FF"/>
</linearGradient>
<linearGradient id="paint3_linear_33_4247" x1="-3420.68" y1="1047.94" x2="5615.54" y2="9374.9" gradientUnits="userSpaceOnUse">
<stop stop-color="#E9E9ED"/>
<stop offset="1" stop-color="#DEDFE3"/>
</linearGradient>
<linearGradient id="paint4_linear_33_4247" x1="645.769" y1="617.236" x2="4098.49" y2="4071.07" gradientUnits="userSpaceOnUse">
<stop stop-color="white"/>
<stop offset="1" stop-color="white" stop-opacity="0"/>
</linearGradient>
<linearGradient id="paint5_linear_33_4247" x1="576.025" y1="530.383" x2="2751.4" y2="2705.76" gradientUnits="userSpaceOnUse">
<stop stop-color="white"/>
<stop offset="1" stop-color="white" stop-opacity="0"/>
</linearGradient>
<linearGradient id="paint6_linear_33_4247" x1="423.561" y1="5346.81" x2="423.561" y2="-263.649" gradientUnits="userSpaceOnUse">
<stop stop-color="#61ADFF" stop-opacity="0.6"/>
<stop offset="0.11" stop-color="#5DA9FF" stop-opacity="0.73"/>
<stop offset="0.23" stop-color="#5AA6FF" stop-opacity="0.83"/>
<stop offset="0.36" stop-color="#57A4FF" stop-opacity="0.9"/>
<stop offset="0.5" stop-color="#55A2FF" stop-opacity="0.96"/>
<stop offset="0.68" stop-color="#54A1FF" stop-opacity="0.99"/>
<stop offset="1" stop-color="#54A1FF"/>
</linearGradient>
<linearGradient id="paint7_linear_33_4247" x1="394.924" y1="7678.39" x2="394.924" y2="-253.215" gradientUnits="userSpaceOnUse">
<stop stop-color="#61ADFF" stop-opacity="0.6"/>
<stop offset="0.11" stop-color="#5DA9FF" stop-opacity="0.73"/>
<stop offset="0.23" stop-color="#5AA6FF" stop-opacity="0.83"/>
<stop offset="0.36" stop-color="#57A4FF" stop-opacity="0.9"/>
<stop offset="0.5" stop-color="#55A2FF" stop-opacity="0.96"/>
<stop offset="0.68" stop-color="#54A1FF" stop-opacity="0.99"/>
<stop offset="1" stop-color="#54A1FF"/>
</linearGradient>
<linearGradient id="paint8_linear_33_4247" x1="366.377" y1="4237.34" x2="366.377" y2="-279.18" gradientUnits="userSpaceOnUse">
<stop stop-color="#61ADFF" stop-opacity="0.6"/>
<stop offset="0.11" stop-color="#5DA9FF" stop-opacity="0.73"/>
<stop offset="0.23" stop-color="#5AA6FF" stop-opacity="0.83"/>
<stop offset="0.36" stop-color="#57A4FF" stop-opacity="0.9"/>
<stop offset="0.5" stop-color="#55A2FF" stop-opacity="0.96"/>
<stop offset="0.68" stop-color="#54A1FF" stop-opacity="0.99"/>
<stop offset="1" stop-color="#54A1FF"/>
</linearGradient>
<linearGradient id="paint9_linear_33_4247" x1="366.377" y1="2097.56" x2="366.377" y2="-407.951" gradientUnits="userSpaceOnUse">
<stop stop-color="#61ADFF" stop-opacity="0.6"/>
<stop offset="0.11" stop-color="#5DA9FF" stop-opacity="0.73"/>
<stop offset="0.23" stop-color="#5AA6FF" stop-opacity="0.83"/>
<stop offset="0.36" stop-color="#57A4FF" stop-opacity="0.9"/>
<stop offset="0.5" stop-color="#55A2FF" stop-opacity="0.96"/>
<stop offset="0.68" stop-color="#54A1FF" stop-opacity="0.99"/>
<stop offset="1" stop-color="#54A1FF"/>
</linearGradient>
</defs>
</svg>
