<svg width="181" height="181" viewBox="0 0 181 181" fill="none" xmlns="http://www.w3.org/2000/svg">
<g opacity="0.9">
<path d="M128.276 119.096H107.239L101.969 113.707C101.146 112.904 99.8451 112.922 99.0441 113.743C98.2413 114.568 98.2287 115.896 99.0153 116.735L101.344 119.113H97.8741C96.7185 119.114 95.7825 120.072 95.7825 121.255C95.7825 122.435 96.7185 123.393 97.8741 123.393H101.326L98.9991 125.773C98.2107 126.611 98.2251 127.94 99.0261 128.761C99.8289 129.585 101.128 129.601 101.951 128.8L107.223 123.411H128.258L133.53 128.8C134.347 129.635 135.672 129.635 136.491 128.8C137.308 127.963 137.308 126.608 136.491 125.773L134.216 123.375H137.668C138.824 123.375 139.76 122.417 139.76 121.237C139.76 120.056 138.824 119.098 137.668 119.098H134.216L136.552 116.719C136.943 116.317 137.161 115.775 137.159 115.208C137.159 114.641 136.943 114.096 136.552 113.691C136.16 113.29 135.627 113.063 135.073 113.063C134.515 113.063 133.984 113.29 133.591 113.693L128.276 119.098V119.096Z" fill="url(#paint0_linear_33_4249)"/>
<path d="M121.204 110.872L110.677 129.504L103.465 131.482C102.351 131.788 101.692 132.964 101.991 134.107C102.291 135.248 103.438 135.925 104.554 135.617L107.729 134.717L105.974 137.773C105.398 138.799 105.74 140.108 106.743 140.698C107.742 141.289 109.021 140.938 109.597 139.912L111.352 136.857L112.229 140.11C112.528 141.253 113.673 141.929 114.785 141.625C115.901 141.319 116.563 140.146 116.265 139.004L114.335 131.617L124.863 112.984L132.074 110.998C133.188 110.692 133.851 109.519 133.552 108.377C133.255 107.236 132.108 106.559 130.996 106.864L127.81 107.764L129.565 104.705C130.101 103.688 129.75 102.416 128.773 101.838C127.792 101.257 126.541 101.581 125.95 102.567L124.195 105.623L123.319 102.369C123.015 101.235 121.877 100.562 120.765 100.859C119.649 101.165 118.986 102.34 119.283 103.483L121.204 110.872Z" fill="url(#paint1_linear_33_4249)"/>
<path d="M121.173 131.68L110.649 113.05L103.465 111.063C102.351 110.757 101.692 109.582 101.991 108.439C102.291 107.297 103.438 106.621 104.552 106.93L107.727 107.828L105.972 104.772C105.378 103.746 105.711 102.419 106.714 101.811C107.716 101.203 109.012 101.543 109.606 102.571L111.36 105.627L112.234 102.373C112.535 101.231 113.682 100.555 114.796 100.862C115.912 101.17 116.571 102.346 116.27 103.487L114.34 110.874L124.865 129.504L132.074 131.484C133.188 131.788 133.851 132.96 133.552 134.103C133.255 135.244 132.11 135.921 130.996 135.615L127.812 134.719L129.567 137.773C129.964 138.436 129.981 139.269 129.606 139.948C129.234 140.626 128.53 141.042 127.77 141.035C127.009 141.028 126.312 140.597 125.952 139.912L124.199 136.857L123.321 140.11C123.024 141.253 121.879 141.929 120.765 141.625C119.65 141.319 118.988 140.146 119.287 139.004L121.173 131.68Z" fill="url(#paint2_linear_33_4249)"/>
</g>
<path opacity="0.8" d="M133.759 68.4191H131.581L132.664 66.5363C133.591 64.9289 133.042 62.8751 131.437 61.9463C129.826 61.0175 127.768 61.5665 126.834 63.1721L125.751 65.0549L124.665 63.1721C123.736 61.5629 121.677 61.0121 120.068 61.9391C118.459 62.8697 117.908 64.9271 118.837 66.5363L119.92 68.4191H117.742C115.887 68.4245 114.384 69.9275 114.376 71.7851C114.376 73.6445 115.881 75.1529 117.742 75.1583H119.92L118.837 77.0303C117.904 78.6395 118.453 80.7005 120.064 81.6329C121.674 82.5653 123.735 82.0145 124.665 80.4053L125.751 78.5243L126.834 80.4053C127.767 82.0145 129.826 82.5653 131.437 81.6329C133.046 80.7005 133.597 78.6395 132.664 77.0303L131.579 75.1583H133.748C134.995 75.2267 136.18 74.6003 136.826 73.5293C137.47 72.4583 137.47 71.1173 136.826 70.0481C136.18 68.9771 134.995 68.3507 133.748 68.4191H133.757H133.759Z" fill="url(#paint3_linear_33_4249)"/>
<path opacity="0.8" d="M77.2425 132.739H75.7899L76.5153 131.48C77.1273 130.404 76.7583 129.036 75.6873 128.411C74.6109 127.796 73.2393 128.167 72.6201 129.239L71.8731 130.447L71.1459 129.189C70.7391 128.492 69.9903 128.064 69.1839 128.068C68.3739 128.071 67.6305 128.507 67.2291 129.209C66.8277 129.911 66.8331 130.773 67.2399 131.47L67.9653 132.73H66.5145C65.9151 132.73 65.3391 132.965 64.9161 133.39C64.4913 133.813 64.2537 134.389 64.2537 134.989C64.2537 136.236 65.2653 137.248 66.5145 137.248H67.9653L67.2399 138.508C66.7809 139.208 66.7467 140.104 67.1517 140.837C67.5567 141.569 68.3325 142.019 69.1695 142.005C70.0083 141.991 70.7679 141.514 71.1459 140.767L71.8731 139.508L72.6093 140.767C72.9873 141.514 73.7487 141.991 74.5857 142.005C75.4227 142.019 76.2003 141.569 76.6035 140.837C77.0085 140.104 76.9743 139.208 76.5153 138.506L75.7899 137.249H77.2425C78.0489 137.249 78.7959 136.817 79.1991 136.119C79.6041 135.419 79.6041 134.557 79.1991 133.858C78.7959 133.158 78.0489 132.728 77.2425 132.728V132.739Z" fill="url(#paint4_linear_33_4249)"/>
<path d="M94.5584 70.9355L81.17 74.5247L79.4096 73.5023L74.2976 68.2247L80.2376 62.2613L81.1592 61.7303L94.5566 65.3303C95.8958 65.6957 97.3286 65.3195 98.315 64.3403C99.2996 63.3647 99.6902 61.9355 99.3374 60.5927C98.9846 59.2517 97.9406 58.1987 96.6014 57.8333L90.6704 56.2583L96.2144 53.0579C98.0684 51.9869 98.7056 49.6145 97.6364 47.7605C96.5654 45.9047 94.193 45.2675 92.3372 46.3385L86.7932 49.5389L88.37 43.6385C88.9334 41.5703 87.7166 39.4373 85.6484 38.8721C83.582 38.3069 81.4472 39.5255 80.882 41.5919L77.2928 55.0199L75.5342 56.0441L68.273 57.8333L66.2264 50.6747V48.6299L76.0256 38.8307C77.0048 37.8515 77.3864 36.4241 77.0282 35.0867C76.6682 33.7493 75.6242 32.7053 74.2868 32.3471C72.9494 31.9871 71.522 32.3705 70.5428 33.3497L66.2264 37.6661V31.2419C66.122 29.1773 64.4156 27.5555 62.3456 27.5555C60.2756 27.5555 58.571 29.1755 58.4648 31.2419V37.6445L54.1484 33.3299C52.6364 31.8161 50.1812 31.8161 48.6674 33.3299C47.1536 34.8419 47.1536 37.2971 48.6674 38.8109L58.4648 48.6299V49.6523L56.276 57.8333L49.1174 56.0441L47.3588 55.0217L43.8092 41.6333C43.4438 40.2959 42.3926 39.2555 41.0516 38.9027C39.7106 38.5517 38.2832 38.9405 37.3076 39.9269C36.3338 40.9115 35.9576 42.3425 36.323 43.6799L37.898 49.5803L32.3756 46.3385C30.5198 45.2675 28.1474 45.9047 27.0764 47.7605C26.0072 49.6145 26.6444 51.9869 28.4984 53.0579L34.0424 56.2583L28.1204 57.8333C26.0972 58.4363 24.9254 60.5441 25.4816 62.5817C26.036 64.6175 28.1168 65.8397 30.1652 65.3303L43.5212 61.7411L44.4428 62.2721L50.3846 68.2355L45.2726 73.5113L43.5122 74.5355L30.1346 70.9355C28.7972 70.5701 27.368 70.9445 26.3816 71.9201C25.397 72.8957 25.0064 74.3231 25.3592 75.6641C25.712 77.0051 26.7524 78.0563 28.0898 78.4217L33.9902 80.0057L28.4462 83.2079C26.5958 84.2915 25.973 86.6729 27.0566 88.5251C28.142 90.3791 30.5216 91.0019 32.3756 89.9165L37.9196 86.7251L36.323 92.6057C35.9576 93.9431 36.3338 95.3741 37.3094 96.3587C38.2832 97.3451 39.7106 97.7339 41.0534 97.3829C42.3926 97.0301 43.4438 95.9897 43.8074 94.6523L47.3984 81.2549L48.32 80.7329L56.3174 78.5945L58.4648 86.5829V87.6053L48.6674 97.4135C47.1536 98.9255 47.1536 101.381 48.6674 102.895C50.1794 104.408 52.6346 104.408 54.1484 102.895L58.4648 98.5799V104.97C58.391 106.405 59.1128 107.764 60.3458 108.502C61.577 109.241 63.116 109.241 64.3472 108.502C65.5784 107.764 66.3002 106.405 66.2264 104.972V98.5997L70.5428 102.916C71.522 103.895 72.9494 104.277 74.2868 103.919C75.6242 103.559 76.67 102.515 77.0282 101.177C77.3882 99.8399 77.0048 98.4125 76.0256 97.4333L66.2264 87.6269V85.5821L68.273 78.5261L76.454 80.6933L77.3756 81.2153L80.8838 94.6541C81.2474 95.9915 82.2986 97.0301 83.6396 97.3847C84.9806 97.7357 86.408 97.3469 87.3836 96.3605C88.3592 95.3759 88.7336 93.9449 88.37 92.6075L86.795 86.718L92.339 89.9075C94.1822 90.8975 96.479 90.2423 97.523 88.4315C98.5706 86.6189 97.991 84.3041 96.2144 83.1989L90.6704 80.0057L96.5618 78.4217C98.6282 77.8565 99.8468 75.7217 99.2816 73.6553C98.7164 71.5871 96.5816 70.3703 94.5152 70.9355H94.5584ZM59.0894 71.3855C57.3002 69.5855 57.3002 66.6785 59.0894 64.8803C59.9534 64.0163 61.1234 63.5303 62.3474 63.5303C63.5678 63.5303 64.7414 64.0163 65.6036 64.8803C67.3928 66.6803 67.3928 69.5855 65.6036 71.3855C64.7396 72.2495 63.5696 72.7355 62.3456 72.7355C61.1234 72.7355 59.9516 72.2495 59.0876 71.3855H59.0894Z" fill="url(#paint5_linear_33_4249)"/>
<defs>
<linearGradient id="paint0_linear_33_4249" x1="834.738" y1="724.693" x2="2561.66" y2="2490.58" gradientUnits="userSpaceOnUse">
<stop stop-color="#B8D6FF"/>
<stop offset="0.98" stop-color="#A6CDFF"/>
<stop offset="1" stop-color="#A6CDFF"/>
</linearGradient>
<linearGradient id="paint1_linear_33_4249" x1="-154502" y1="-211407" x2="-155931" y2="-209943" gradientUnits="userSpaceOnUse">
<stop stop-color="#B8D6FF"/>
<stop offset="0.98" stop-color="#A6CDFF"/>
<stop offset="1" stop-color="#A6CDFF"/>
</linearGradient>
<linearGradient id="paint2_linear_33_4249" x1="-153445" y1="-213118" x2="-157753" y2="-208704" gradientUnits="userSpaceOnUse">
<stop stop-color="#B8D6FF"/>
<stop offset="0.98" stop-color="#A6CDFF"/>
<stop offset="1" stop-color="#A6CDFF"/>
</linearGradient>
<linearGradient id="paint3_linear_33_4249" x1="315.911" y1="335.664" x2="1697.76" y2="1718.51" gradientUnits="userSpaceOnUse">
<stop stop-color="#C7DFFF"/>
<stop offset="1" stop-color="#A6CDFF"/>
</linearGradient>
<linearGradient id="paint4_linear_33_4249" x1="-140907" y1="-35753.8" x2="-140588" y2="-34566.9" gradientUnits="userSpaceOnUse">
<stop stop-color="#C7DFFF"/>
<stop offset="1" stop-color="#A6CDFF"/>
</linearGradient>
<linearGradient id="paint5_linear_33_4249" x1="1420" y1="1293.18" x2="6529.17" y2="6401.48" gradientUnits="userSpaceOnUse">
<stop stop-color="#C7DFFF"/>
<stop offset="1" stop-color="#A6CDFF"/>
</linearGradient>
</defs>
</svg>
