<svg width="181" height="181" viewBox="0 0 181 181" fill="none" xmlns="http://www.w3.org/2000/svg">
<path d="M123.848 51.5836C115.244 36.7516 98.9085 28.1656 81.8283 29.4994C64.7481 30.8332 49.9431 41.8492 43.7403 57.8386C29.4231 61.3666 19.3287 74.1898 19.2495 88.9552C19.2495 106.707 33.8277 121.089 51.8115 121.089H119.4C138.93 121.089 154.766 105.459 154.766 86.1868C154.647 68.4964 141.392 53.6644 123.846 51.5854L123.848 51.5836Z" fill="url(#paint0_linear_33_4245)"/>
<path opacity="0.2" d="M129.888 73.9936C129.892 92.0512 119.031 108.332 102.37 115.244C85.709 122.156 66.53 118.34 53.7752 105.573C41.0222 92.8054 37.2044 73.6048 44.1056 56.9206C51.0068 40.2382 67.2662 29.3608 85.3004 29.3608C97.1246 29.359 108.466 34.0588 116.827 42.4288C125.19 50.8006 129.888 62.155 129.888 73.9936Z" fill="url(#paint1_linear_33_4245)"/>
<path d="M165.822 121.947C163.824 113.588 157.254 107.061 148.842 105.072C147.535 104.774 146.209 104.576 144.871 104.482C142.042 94.2148 133.659 86.392 123.176 84.223C115.458 82.5706 107.394 84.1312 100.863 88.5412C94.3311 92.9512 89.9013 99.8272 88.6053 107.567C77.2221 108.89 68.8233 118.754 69.3885 130.128C69.9555 141.503 79.2957 150.494 90.7545 150.692H143.219C150.383 150.681 157.146 147.398 161.559 141.787C165.969 136.176 167.544 128.861 165.822 121.947Z" fill="#DEDFE3"/>
<path opacity="0.59" d="M145.277 106.197C147.327 115.725 144.378 125.634 137.447 132.522C130.517 139.411 120.545 142.341 110.96 140.304C99.8302 138.014 91.1344 129.372 88.8304 118.31C86.7766 108.782 89.7214 98.8696 96.655 91.9792C103.587 85.0906 113.561 82.162 123.147 84.2032C134.277 86.4928 142.974 95.1364 145.277 106.199V106.197Z" fill="url(#paint2_linear_33_4245)"/>
<path opacity="0.4" d="M165.822 121.947C167.798 129.849 165.462 138.201 159.671 143.96C153.877 149.716 145.473 152.036 137.524 150.072C129.111 148.085 122.542 141.558 120.544 133.197C118.568 125.295 120.903 116.943 126.695 111.187C132.487 105.429 140.892 103.11 148.842 105.072C157.254 107.06 163.822 113.586 165.822 121.947Z" fill="url(#paint3_linear_33_4245)"/>
<defs>
<linearGradient id="paint0_linear_33_4245" x1="517.409" y1="2275.62" x2="6969.88" y2="8736.59" gradientUnits="userSpaceOnUse">
<stop stop-color="#C9CACC"/>
<stop offset="1" stop-color="#BABBBD"/>
</linearGradient>
<linearGradient id="paint1_linear_33_4245" x1="644.172" y1="-625.279" x2="4364.06" y2="4301.34" gradientUnits="userSpaceOnUse">
<stop stop-color="#FCFCFC"/>
<stop offset="1" stop-color="white" stop-opacity="0"/>
</linearGradient>
<linearGradient id="paint2_linear_33_4245" x1="1773.9" y1="209.502" x2="3486.08" y2="4168.56" gradientUnits="userSpaceOnUse">
<stop stop-color="white"/>
<stop offset="1" stop-color="white" stop-opacity="0"/>
</linearGradient>
<linearGradient id="paint3_linear_33_4245" x1="1866.01" y1="62.5147" x2="2553.17" y2="2851.79" gradientUnits="userSpaceOnUse">
<stop stop-color="white"/>
<stop offset="1" stop-color="white" stop-opacity="0"/>
</linearGradient>
</defs>
</svg>
