<svg width="181" height="181" viewBox="0 0 181 181" fill="none" xmlns="http://www.w3.org/2000/svg">
<path opacity="0.15" d="M158.341 90.5609V90.4691C158.341 53.1911 128.119 22.9691 90.8408 22.9691C53.5628 22.9691 23.3408 53.1911 23.3408 90.4691V90.6527C23.3408 127.931 53.5628 158.153 90.8408 158.153C128.119 158.153 158.341 127.931 158.341 90.6527V90.5609Z" fill="#FFD800"/>
<path d="M90.8409 144.255C121.342 144.255 146.068 119.529 146.068 89.0273C146.068 58.5259 121.342 33.7997 90.8409 33.7997C60.3395 33.7997 35.6133 58.5259 35.6133 89.0273C35.6133 119.529 60.3395 144.255 90.8409 144.255Z" fill="url(#paint0_linear_33_4241)"/>
<defs>
<linearGradient id="paint0_linear_33_4241" x1="-733.486" y1="-734.306" x2="9521.51" y2="9520.69" gradientUnits="userSpaceOnUse">
<stop stop-color="#FFCC14"/>
<stop offset="1" stop-color="#FFB90A"/>
</linearGradient>
</defs>
</svg>
