<svg width="181" height="181" viewBox="0 0 181 181" fill="none" xmlns="http://www.w3.org/2000/svg">
<g opacity="0.8">
<path d="M85.9868 129.813V146.811L81.7118 151.086C81.2852 151.512 81.1178 152.135 81.2744 152.72C81.431 153.303 81.8864 153.761 82.4714 153.917C83.0546 154.074 83.6774 153.906 84.1058 153.478L85.9868 151.597V154.389C86.0552 155.273 86.7932 155.955 87.6788 155.955C88.5662 155.955 89.3042 155.273 89.3708 154.389V151.597L91.2536 153.478C91.5704 153.797 92.0024 153.977 92.4506 153.977C92.9006 153.977 93.3308 153.797 93.6476 153.478C94.2992 152.814 94.2992 151.75 93.6476 151.084L89.3726 146.811V129.813L93.6476 125.528C94.3082 124.867 94.3082 123.794 93.6476 123.134C92.987 122.473 91.9142 122.473 91.2536 123.134L89.3726 125.025V122.264C89.4194 121.629 89.1098 121.019 88.5662 120.687C88.0226 120.354 87.3368 120.354 86.7932 120.687C86.2496 121.02 85.9382 121.631 85.9868 122.266V125.06L84.1058 123.162C83.7854 122.849 83.357 122.673 82.9088 122.673C82.2248 122.669 81.6056 123.081 81.3428 123.713C81.0818 124.345 81.2258 125.074 81.7118 125.556L85.9868 129.813Z" fill="url(#paint0_linear_33_4250)"/>
<path d="M79.4204 135.561L94.1588 144.07L95.7842 149.878C96.0722 150.728 96.9686 151.21 97.8344 150.976C98.7002 150.742 99.2366 149.878 99.0584 149L98.3618 146.422L100.765 147.833C101.152 148.06 101.614 148.121 102.048 148.006C102.48 147.887 102.847 147.601 103.067 147.209C103.292 146.822 103.355 146.359 103.24 145.925C103.125 145.493 102.842 145.123 102.453 144.899L100.039 143.504L102.606 142.82C103.447 142.529 103.92 141.64 103.692 140.779C103.463 139.921 102.612 139.382 101.737 139.548L95.8868 141.112L81.1592 132.593L79.595 126.754C79.3088 125.904 78.4106 125.422 77.5448 125.656C76.6808 125.89 76.1444 126.754 76.3208 127.632L77.0084 130.199L74.5946 128.809C74.0726 128.507 73.4282 128.507 72.9062 128.809C72.3842 129.112 72.0602 129.668 72.0602 130.273C72.062 130.876 72.3842 131.432 72.9062 131.734L75.3308 133.135L72.7532 133.819C72.3212 133.939 71.9558 134.222 71.7308 134.607C71.5094 134.999 71.4464 135.46 71.5562 135.896C71.8064 136.78 72.7082 137.309 73.6028 137.093L79.4204 135.561Z" fill="url(#paint1_linear_33_4250)"/>
<path d="M95.8868 135.561L81.1592 144.069L79.595 149.878C79.3088 150.728 78.4106 151.21 77.5448 150.976C76.6808 150.742 76.1444 149.878 76.3208 149L77.0084 146.422L74.5946 147.833C73.7936 148.217 72.8306 147.918 72.3896 147.149C71.9468 146.379 72.1736 145.398 72.9062 144.899L75.3308 143.495L72.7532 142.811C72.134 142.685 71.6372 142.226 71.459 141.62C71.2844 141.013 71.459 140.36 71.9162 139.922C72.3734 139.485 73.0322 139.337 73.6334 139.539L79.4204 141.105L94.1588 132.594L95.7842 126.755C95.9102 126.136 96.3692 125.637 96.9758 125.461C97.5842 125.286 98.2376 125.461 98.675 125.918C99.1124 126.374 99.26 127.034 99.0584 127.634L98.3618 130.2L100.786 128.811C101.595 128.343 102.626 128.622 103.092 129.428C103.558 130.238 103.281 131.27 102.473 131.736L100.061 133.136L102.626 133.82C103.054 133.946 103.422 134.227 103.65 134.609C103.989 135.203 103.938 135.941 103.524 136.484C103.11 137.026 102.408 137.267 101.748 137.094L95.8868 135.561Z" fill="url(#paint2_linear_33_4250)"/>
</g>
<g opacity="0.9">
<path d="M144.487 104.768H119.195L112.845 98.4161C112.222 97.7285 111.271 97.4405 110.371 97.6637C109.471 97.8887 108.768 98.5907 108.541 99.4889C108.314 100.389 108.6 101.341 109.284 101.966L112.087 104.766H107.934C106.545 104.766 105.42 105.893 105.42 107.283C105.42 108.672 106.545 109.799 107.934 109.799H112.087L109.284 112.602C108.6 113.226 108.312 114.177 108.541 115.077C108.768 115.977 109.471 116.679 110.371 116.902C111.271 117.127 112.222 116.837 112.845 116.15L119.195 109.799H144.487L150.839 116.15C151.829 117.055 153.359 117.021 154.309 116.072C155.26 115.124 155.299 113.597 154.398 112.602L151.595 109.799H155.748C157.137 109.799 158.264 108.672 158.264 107.283C158.264 105.893 157.137 104.766 155.748 104.766H151.595L154.398 101.966C155.298 100.97 155.262 99.442 154.309 98.4934C153.359 97.5466 151.831 97.5125 150.839 98.4161L144.487 104.768Z" fill="url(#paint3_linear_33_4250)"/>
<path d="M135.989 95.0716L123.398 116.978L114.715 119.3C113.818 119.507 113.106 120.185 112.855 121.071C112.607 121.956 112.861 122.907 113.52 123.551C114.177 124.196 115.134 124.428 116.014 124.158L119.839 123.135L117.795 126.725C117.327 127.504 117.314 128.476 117.764 129.266C118.214 130.056 119.056 130.542 119.965 130.537C120.874 130.532 121.711 130.037 122.151 129.241L124.195 125.652L125.22 129.477C125.425 130.373 126.103 131.086 126.989 131.336C127.876 131.585 128.827 131.331 129.471 130.672C130.114 130.015 130.346 129.057 130.076 128.177L127.745 119.494L140.395 97.5898L149.079 95.2678C150.402 94.8898 151.176 93.5218 150.817 92.1934C150.459 90.8668 149.102 90.073 147.77 90.4114L143.945 91.432L145.99 87.8428C146.656 86.6422 146.236 85.1302 145.048 84.4444C143.86 83.7568 142.341 84.151 141.634 85.3264L139.589 88.9174L138.565 85.0924C138.396 84.448 137.976 83.9008 137.4 83.5678C136.516 83.0008 135.373 83.0422 134.535 83.6704C133.694 84.3004 133.332 85.384 133.626 86.3902L135.989 95.0716Z" fill="url(#paint4_linear_33_4250)"/>
<path d="M135.989 119.496L123.398 97.5863L114.715 95.2643C113.818 95.0591 113.106 94.3787 112.855 93.4931C112.607 92.6075 112.861 91.6571 113.52 91.0127C114.177 90.3701 115.134 90.1379 116.014 90.4061L119.839 91.4285L117.795 87.8393C117.129 86.6387 117.548 85.1267 118.736 84.4409C119.924 83.7533 121.443 84.1475 122.151 85.3229L124.195 88.9139L125.22 85.0889C125.425 84.1907 126.103 83.4779 126.989 83.2295C127.876 82.9793 128.827 83.2331 129.471 83.8919C130.114 84.5507 130.346 85.5065 130.076 86.3867L127.745 95.0699L140.395 116.976L149.079 119.298C150.402 119.676 151.176 121.044 150.817 122.372C150.459 123.699 149.102 124.494 147.77 124.156L143.945 123.134L145.99 126.723C146.656 127.923 146.236 129.435 145.048 130.123C143.86 130.809 142.341 130.416 141.634 129.241L139.589 125.65L138.565 129.475C138.396 130.118 137.976 130.667 137.4 130.998C136.518 131.507 135.42 131.437 134.61 130.82C133.804 130.202 133.447 129.158 133.708 128.175L135.989 119.492V119.496Z" fill="url(#paint5_linear_33_4250)"/>
</g>
<path d="M142.44 54.8993H140.395L141.418 53.1299C141.841 52.4009 141.958 51.5351 141.74 50.7215C141.524 49.9079 140.991 49.2131 140.264 48.7919C139.535 48.3707 138.667 48.2537 137.854 48.4715C137.042 48.6875 136.347 49.2203 135.926 49.9475L134.904 51.7295L133.881 49.9475C132.965 48.5111 131.08 48.0521 129.606 48.9035C128.13 49.7567 127.59 51.6197 128.379 53.1299L129.401 54.8993H127.356C125.605 54.8993 124.185 56.3177 124.185 58.0673C124.183 58.9115 124.516 59.7197 125.11 60.3173C125.704 60.9149 126.514 61.2497 127.356 61.2497H129.401L128.379 63.0191C127.502 64.5383 128.024 66.4805 129.545 67.3553C131.064 68.2301 133.005 67.7081 133.881 66.1889L134.904 64.4195L135.926 66.1889C136.493 67.1699 137.539 67.7747 138.673 67.7747C139.805 67.7747 140.851 67.1699 141.418 66.1907C141.985 65.2079 141.985 64.0001 141.418 63.0191L140.395 61.2497H142.44C143.619 61.3163 144.737 60.7277 145.345 59.7161C145.954 58.7063 145.954 57.4427 145.345 56.4311C144.737 55.4231 143.617 54.8327 142.44 54.8993Z" fill="url(#paint6_linear_33_4250)"/>
<path opacity="0.8" d="M61.379 114.483L60.245 115.136V113.828C60.245 112.699 59.327 111.783 58.1984 111.783C57.0698 111.783 56.1536 112.699 56.1536 113.828V115.106L55.0196 114.452C54.062 114.02 52.9352 114.38 52.4078 115.288C51.8804 116.195 52.1252 117.354 52.973 117.97L54.098 118.625L52.973 119.28C52.0082 119.843 51.677 121.078 52.226 122.052C52.7912 123.015 54.026 123.348 54.998 122.797L56.132 122.142V123.452C56.132 124.581 57.05 125.497 58.1786 125.497C59.3072 125.497 60.2234 124.581 60.2234 123.452V122.142L61.3574 122.797C62.315 123.229 63.4418 122.869 63.9692 121.962C64.4966 121.055 64.2536 119.896 63.404 119.28L62.27 118.625L63.404 117.97C64.1168 117.649 64.583 116.951 64.6064 116.17C64.6316 115.388 64.2086 114.663 63.5192 114.298C62.828 113.932 61.9892 113.992 61.3592 114.452L61.379 114.483Z" fill="url(#paint7_linear_33_4250)"/>
<path d="M100.479 65.9441L86.579 69.6557L84.7592 68.6333L79.5122 63.1523L85.6502 57.0143L86.6006 56.4743L100.459 60.1859C101.85 60.5711 103.341 60.1787 104.363 59.1581C105.384 58.1375 105.778 56.6453 105.393 55.2539C105.007 53.8625 103.904 52.7843 102.504 52.4333L96.3656 50.7971L102.104 47.4851C103.362 46.7831 104.149 45.4637 104.17 44.0237C104.19 42.5837 103.441 41.2427 102.207 40.5065C100.97 39.7685 99.4346 39.7451 98.1764 40.4471L92.4398 43.7609L94.076 37.6229C94.4612 36.2333 94.0688 34.7429 93.0482 33.7205C92.0276 32.6981 90.5354 32.3057 89.144 32.6909C87.7526 33.0743 86.6744 34.1777 86.3234 35.5799L82.6118 49.4777L80.7902 50.5001L73.2842 52.4135L71.1566 44.9669V42.8609L81.3014 32.7161C82.3166 31.7009 82.7126 30.2231 82.3418 28.8389C81.9692 27.4529 80.8874 26.3729 79.5032 26.0003C78.1172 25.6295 76.6412 26.0255 75.626 27.0389L71.1566 31.5083V24.8807C71.0486 22.7423 69.2846 21.0647 67.1426 21.0647C65.0006 21.0647 63.2366 22.7423 63.1286 24.8807V31.5083L58.6592 27.0389C57.6458 26.0255 56.168 25.6295 54.782 26.0003C53.396 26.3711 52.316 27.4529 51.9434 28.8389C51.5726 30.2249 51.9686 31.7009 52.9838 32.7161L63.1286 42.8609V43.9661L60.8588 52.3829L53.495 50.5307L51.6734 49.5083L47.951 35.6195C47.6 34.2191 46.5218 33.1175 45.1304 32.7305C43.739 32.3471 42.2468 32.7395 41.2262 33.7619C40.2056 34.7825 39.8132 36.2747 40.2002 37.6661L41.8346 43.8023L36.098 40.4471C34.1882 39.4409 31.8248 40.1231 30.7448 41.9915C29.6648 43.8617 30.2534 46.2485 32.0768 47.4023L37.8152 50.7143L31.679 52.3523C29.564 52.9373 28.313 55.1153 28.8728 57.2375C29.4326 59.3615 31.5962 60.6395 33.7256 60.1049L47.582 56.3915L48.545 56.9333L54.6812 63.0713L49.3928 68.5307L47.573 69.5549L33.785 65.9441C31.6574 65.4095 29.4938 66.6875 28.934 68.8097C28.376 70.9337 29.6252 73.1117 31.742 73.6967L37.8764 75.3329L32.1398 78.6449C30.3146 79.7969 29.726 82.1873 30.806 84.0557C31.886 85.9241 34.2494 86.6063 36.1592 85.6001L41.8958 82.2881L40.2596 88.4225C39.8744 89.8157 40.2668 91.3061 41.2874 92.3285C42.3098 93.3491 43.8002 93.7433 45.1934 93.3581C46.583 92.9729 47.6612 91.8695 48.0122 90.4691L51.7256 76.6109L52.676 76.0583L60.9506 73.8605L63.179 82.1225V83.2277L53.0342 93.3725C51.8912 94.5245 51.551 96.2489 52.172 97.7465C52.7948 99.2441 54.2546 100.223 55.8764 100.225C56.9402 100.229 57.9608 99.8057 58.7096 99.0497L63.179 94.5803V101.208C63.287 103.346 65.051 105.024 67.193 105.024C69.335 105.024 71.099 103.346 71.207 101.208V94.5803L75.6764 99.0497C76.6916 100.063 78.1694 100.459 79.5536 100.088C80.9396 99.7175 82.0196 98.6357 82.3922 97.2497C82.763 95.8637 82.367 94.3877 81.3536 93.3725L71.2088 83.2277V81.1217L73.2536 73.8191L81.6812 76.0583L82.6316 76.6109L86.345 90.4691C86.696 91.8695 87.7724 92.9729 89.1656 93.3581C90.557 93.7433 92.0474 93.3491 93.068 92.3285C94.0886 91.3061 94.4828 89.8157 94.0958 88.4225L92.4596 82.2863L98.198 85.6001C99.44 86.3165 100.97 86.3165 102.212 85.5983C103.454 84.8801 104.217 83.5553 104.215 82.1207C104.215 80.6861 103.449 79.3631 102.207 78.6467L96.47 75.3329L102.606 73.6949C104.007 73.3457 105.108 72.2675 105.495 70.8761C105.879 69.4847 105.486 67.9925 104.464 66.9719C103.443 65.9513 101.951 65.5589 100.56 65.9441H100.479ZM63.8846 66.3023C63.0206 65.4383 62.5346 64.2665 62.5346 63.0443C62.5346 61.8221 63.0206 60.6503 63.8846 59.7863C65.6846 57.9989 68.5898 57.9989 70.3898 59.7863C71.2538 60.6503 71.7398 61.8221 71.7398 63.0443C71.7398 64.2665 71.2538 65.4383 70.3898 66.3023C68.5898 68.0915 65.6846 68.0915 63.8846 66.3023Z" fill="url(#paint8_linear_33_4250)"/>
<defs>
<linearGradient id="paint0_linear_33_4250" x1="571.363" y1="728.811" x2="1984.89" y2="2142.42" gradientUnits="userSpaceOnUse">
<stop stop-color="#C7DFFF"/>
<stop offset="1" stop-color="#A6CDFF"/>
</linearGradient>
<linearGradient id="paint1_linear_33_4250" x1="509.43" y1="663.366" x2="2534.57" y2="2688.33" gradientUnits="userSpaceOnUse">
<stop stop-color="#C7DFFF"/>
<stop offset="1" stop-color="#A6CDFF"/>
</linearGradient>
<linearGradient id="paint2_linear_33_4250" x1="520.374" y1="678.614" x2="2546.49" y2="2704.72" gradientUnits="userSpaceOnUse">
<stop stop-color="#C7DFFF"/>
<stop offset="1" stop-color="#A6CDFF"/>
</linearGradient>
<linearGradient id="paint3_linear_33_4250" x1="994.157" y1="831.027" x2="3098.59" y2="2935.4" gradientUnits="userSpaceOnUse">
<stop stop-color="#C7DFFF"/>
<stop offset="1" stop-color="#A6CDFF"/>
</linearGradient>
<linearGradient id="paint4_linear_33_4250" x1="1389.6" y1="1485.24" x2="3124.97" y2="3220.73" gradientUnits="userSpaceOnUse">
<stop stop-color="#C7DFFF"/>
<stop offset="1" stop-color="#A6CDFF"/>
</linearGradient>
<linearGradient id="paint5_linear_33_4250" x1="113.601" y1="-546.862" x2="5352.4" y2="4692.04" gradientUnits="userSpaceOnUse">
<stop stop-color="#C7DFFF"/>
<stop offset="1" stop-color="#A6CDFF"/>
</linearGradient>
<linearGradient id="paint6_linear_33_4250" x1="312.707" y1="306.703" x2="1616.62" y2="1609.81" gradientUnits="userSpaceOnUse">
<stop stop-color="#C7DFFF"/>
<stop offset="1" stop-color="#A6CDFF"/>
</linearGradient>
<linearGradient id="paint7_linear_33_4250" x1="24.9993" y1="1329.38" x2="883.136" y2="2184.95" gradientUnits="userSpaceOnUse">
<stop stop-color="#C7DFFF"/>
<stop offset="1" stop-color="#A6CDFF"/>
</linearGradient>
<linearGradient id="paint8_linear_33_4250" x1="1444.78" y1="1328.31" x2="6759.68" y2="6644.18" gradientUnits="userSpaceOnUse">
<stop stop-color="#C7DFFF"/>
<stop offset="1" stop-color="#A6CDFF"/>
</linearGradient>
</defs>
</svg>
