<svg width="181" height="181" viewBox="0 0 181 181" fill="none" xmlns="http://www.w3.org/2000/svg">
<path opacity="0.3" d="M146.92 84.0665V83.9441C146.92 50.0537 119.447 22.5803 85.5584 22.5803C51.6662 22.5803 24.1928 50.0537 24.1928 83.9423V84.9665C24.2954 117.97 51.7256 145.38 85.5566 145.38C119.389 145.38 146.818 117.97 146.92 84.9665V84.0665Z" fill="url(#paint0_linear_33_4257)"/>
<path d="M85.5566 135.622C114.098 135.622 137.235 112.485 137.235 83.9441C137.235 55.4031 114.098 32.2661 85.5566 32.2661C57.0156 32.2661 33.8786 55.4031 33.8786 83.9441C33.8786 112.485 57.0156 135.622 85.5566 135.622Z" fill="url(#paint1_linear_33_4257)"/>
<path d="M149.415 107.427V109.778L147.37 108.602C146.532 108.116 145.534 107.985 144.598 108.237C143.662 108.489 142.863 109.101 142.379 109.941C141.893 110.78 141.763 111.777 142.015 112.713C142.267 113.649 142.879 114.449 143.72 114.933L145.765 116.108L143.72 117.285C141.97 118.293 141.371 120.527 142.379 122.275C143.387 124.025 145.623 124.624 147.37 123.616L149.415 122.439V124.791C149.415 126.813 151.055 128.453 153.076 128.453C154.048 128.453 154.977 128.067 155.663 127.38C156.347 126.692 156.73 125.762 156.729 124.791V122.439L158.773 123.616C159.907 124.352 161.356 124.401 162.541 123.746C163.723 123.09 164.449 121.838 164.427 120.484C164.406 119.132 163.639 117.901 162.435 117.285L160.39 116.108L162.435 114.933C163.641 114.315 164.406 113.086 164.427 111.732C164.449 110.381 163.723 109.126 162.541 108.471C161.356 107.816 159.909 107.866 158.773 108.602L156.729 109.778V107.427C156.626 105.483 155.019 103.96 153.073 103.96C151.125 103.96 149.52 105.483 149.415 107.427Z" fill="url(#paint2_linear_33_4257)"/>
<path opacity="0.8" d="M135.382 135.723L134.207 136.4V135.039C134.207 133.876 133.264 132.933 132.101 132.933C130.938 132.933 129.995 133.876 129.995 135.039V136.4L128.818 135.725C128.164 135.293 127.327 135.26 126.643 135.638C125.959 136.016 125.538 136.74 125.553 137.523C125.567 138.304 126.013 139.013 126.712 139.366L127.887 140.041L126.712 140.725C126.226 141.004 125.873 141.463 125.731 142.003C125.587 142.543 125.662 143.117 125.945 143.6C126.528 144.604 127.812 144.946 128.818 144.366L129.995 143.691V145.041C129.995 146.204 130.938 147.147 132.101 147.147C133.264 147.147 134.207 146.204 134.207 145.041V143.742L135.384 144.417C136.034 144.793 136.835 144.791 137.485 144.417C138.133 144.039 138.534 143.346 138.532 142.595C138.532 141.845 138.131 141.152 137.481 140.777L136.315 140.091L137.481 139.416C138.131 139.042 138.532 138.349 138.532 137.598C138.532 136.848 138.135 136.155 137.485 135.779C136.837 135.401 136.034 135.401 135.384 135.775V135.725L135.382 135.723Z" fill="url(#paint3_linear_33_4257)"/>
<g filter="url(#filter0_d_33_4257)">
<path d="M125.914 85.4489L115.851 88.1489L114.531 87.3803L110.685 83.4023L115.154 78.9221L115.851 78.5243L125.913 81.2135C127.434 81.5393 128.94 80.6177 129.342 79.1165C129.743 77.6153 128.897 76.0637 127.416 75.5885L122.988 74.4005L127.151 71.9993C128.546 71.1929 129.025 69.4109 128.22 68.0141C127.416 66.6191 125.632 66.1421 124.237 66.9467L120.073 69.3497L121.261 64.9937C121.607 63.4655 120.687 61.9373 119.175 61.5305C117.663 61.1237 116.101 61.9841 115.635 63.4799L112.935 73.5419L111.615 74.3105L106.154 75.6803L104.62 70.2695V68.7053L111.982 61.3307C112.89 60.1715 112.787 58.5191 111.747 57.4787C110.706 56.4383 109.054 56.3357 107.895 57.2411L104.651 60.4919V55.6859C104.651 54.0767 103.346 52.7699 101.735 52.7699C100.126 52.7699 98.8208 54.0767 98.8208 55.6859V60.4919L95.5808 57.2411C94.4198 56.3357 92.7674 56.4383 91.7252 57.4787C90.6848 58.5191 90.584 60.1715 91.4894 61.3307L98.8514 68.7053V69.5027L97.2062 75.6407L91.7954 74.2691L90.476 73.5023L87.776 63.4385C87.4988 62.4341 86.705 61.6529 85.697 61.3919C84.689 61.1291 83.6162 61.4261 82.8836 62.1677C82.1528 62.9111 81.8738 63.9875 82.151 64.9937L83.339 69.4217L79.1648 67.0169C78.2612 66.4661 77.129 66.4499 76.2074 66.9737C75.2876 67.4957 74.7224 68.4785 74.7332 69.5369C74.744 70.5953 75.329 71.5655 76.2596 72.0695L80.4428 74.4329L76.004 75.6191C74.51 76.0835 73.6496 77.6477 74.0564 79.1597C74.4632 80.6717 75.9914 81.5897 77.5178 81.2441L87.6014 78.5549L88.2872 78.9527L92.7152 83.4023L88.8812 87.3911L87.6032 88.1579L77.498 85.4471C75.9716 85.0997 74.4434 86.0195 74.0366 87.5315C73.6298 89.0435 74.4902 90.6059 75.9842 91.0721L80.4428 92.2781L76.2596 94.6523C75.347 95.1707 74.78 96.1373 74.7728 97.1885C74.7638 98.2379 75.3182 99.2135 76.2236 99.7445C77.1308 100.277 78.2504 100.284 79.1648 99.7661L83.3372 97.3613L82.151 101.789C81.9494 102.538 82.052 103.337 82.439 104.01C82.8224 104.678 83.4596 105.166 84.2066 105.36C85.7564 105.776 87.353 104.862 87.776 103.314L90.4652 93.2519L91.1618 92.8523L97.1738 91.2557L98.7902 97.2605V98.0579L91.4282 105.42C90.6002 106.253 90.3518 107.501 90.7982 108.586C91.2446 109.671 92.2994 110.382 93.473 110.391C94.2398 110.386 94.9724 110.08 95.5178 109.542L98.7596 106.291V111.016C98.7596 112.625 100.065 113.93 101.676 113.93C103.285 113.93 104.59 112.625 104.59 111.014V106.199L107.832 109.45C108.993 110.355 110.645 110.253 111.684 109.212C112.726 108.172 112.827 106.52 111.923 105.36L104.559 97.9967V96.4613L106.062 91.1639L112.2 92.7911L112.895 93.1889L115.595 103.253C116.059 104.747 117.624 105.607 119.134 105.2C120.646 104.793 121.567 103.265 121.22 101.739L120.032 97.3109L124.237 99.7661C125.648 100.571 127.446 100.077 128.251 98.6663C129.055 97.2533 128.564 95.4569 127.151 94.6523L122.989 92.2475L127.417 91.0523C128.897 90.5771 129.743 89.0255 129.343 87.5243C128.94 86.0231 127.434 85.0997 125.914 85.4273V85.4471V85.4489ZM99.2096 85.8269C97.8398 84.4517 97.8398 82.2269 99.2096 80.8553C99.8684 80.1911 100.765 79.8185 101.701 79.8185C102.637 79.8185 103.531 80.1911 104.19 80.8553C105.562 82.2287 105.562 84.4517 104.19 85.8251C103.533 86.4911 102.639 86.8655 101.703 86.8691C100.767 86.8691 99.8702 86.4983 99.2096 85.8359V85.8251V85.8269Z" fill="black"/>
</g>
<path d="M125.914 85.4489L115.851 88.1489L114.531 87.3803L110.685 83.4023L115.154 78.9221L115.851 78.5243L125.913 81.2135C127.434 81.5393 128.94 80.6177 129.342 79.1165C129.743 77.6153 128.897 76.0637 127.416 75.5885L122.988 74.4005L127.151 71.9993C128.546 71.1929 129.025 69.4109 128.22 68.0141C127.416 66.6191 125.632 66.1421 124.237 66.9467L120.073 69.3497L121.261 64.9937C121.607 63.4655 120.687 61.9373 119.175 61.5305C117.663 61.1237 116.101 61.9841 115.635 63.4799L112.935 73.5419L111.615 74.3105L106.154 75.6803L104.62 70.2695V68.7053L111.982 61.3307C112.89 60.1715 112.787 58.5191 111.747 57.4787C110.706 56.4383 109.054 56.3357 107.895 57.2411L104.651 60.4919V55.6859C104.651 54.0767 103.346 52.7699 101.735 52.7699C100.126 52.7699 98.8208 54.0767 98.8208 55.6859V60.4919L95.5808 57.2411C94.4198 56.3357 92.7674 56.4383 91.7252 57.4787C90.6848 58.5191 90.584 60.1715 91.4894 61.3307L98.8514 68.7053V69.5027L97.2062 75.6407L91.7954 74.2691L90.476 73.5023L87.776 63.4385C87.4988 62.4341 86.705 61.6529 85.697 61.3919C84.689 61.1291 83.6162 61.4261 82.8836 62.1677C82.1528 62.9111 81.8738 63.9875 82.151 64.9937L83.339 69.4217L79.1648 67.0169C78.2612 66.4661 77.129 66.4499 76.2074 66.9737C75.2876 67.4957 74.7224 68.4785 74.7332 69.5369C74.744 70.5953 75.329 71.5655 76.2596 72.0695L80.4428 74.4329L76.004 75.6191C74.51 76.0835 73.6496 77.6477 74.0564 79.1597C74.4632 80.6717 75.9914 81.5897 77.5178 81.2441L87.6014 78.5549L88.2872 78.9527L92.7152 83.4023L88.8812 87.3911L87.6032 88.1579L77.498 85.4471C75.9716 85.0997 74.4434 86.0195 74.0366 87.5315C73.6298 89.0435 74.4902 90.6059 75.9842 91.0721L80.4428 92.2781L76.2596 94.6523C75.347 95.1707 74.78 96.1373 74.7728 97.1885C74.7638 98.2379 75.3182 99.2135 76.2236 99.7445C77.1308 100.277 78.2504 100.284 79.1648 99.7661L83.3372 97.3613L82.151 101.789C81.9494 102.538 82.052 103.337 82.439 104.01C82.8224 104.678 83.4596 105.166 84.2066 105.36C85.7564 105.776 87.353 104.862 87.776 103.314L90.4652 93.2519L91.1618 92.8523L97.1738 91.2557L98.7902 97.2605V98.0579L91.4282 105.42C90.6002 106.253 90.3518 107.501 90.7982 108.586C91.2446 109.671 92.2994 110.382 93.473 110.391C94.2398 110.386 94.9724 110.08 95.5178 109.542L98.7596 106.291V111.016C98.7596 112.625 100.065 113.93 101.676 113.93C103.285 113.93 104.59 112.625 104.59 111.014V106.199L107.832 109.45C108.993 110.355 110.645 110.253 111.684 109.212C112.726 108.172 112.827 106.52 111.923 105.36L104.559 97.9967V96.4613L106.062 91.1639L112.2 92.7911L112.895 93.1889L115.595 103.253C116.059 104.747 117.624 105.607 119.134 105.2C120.646 104.793 121.567 103.265 121.22 101.739L120.032 97.3109L124.237 99.7661C125.648 100.571 127.446 100.077 128.251 98.6663C129.055 97.2533 128.564 95.4569 127.151 94.6523L122.989 92.2475L127.417 91.0523C128.897 90.5771 129.743 89.0255 129.343 87.5243C128.94 86.0231 127.434 85.0997 125.914 85.4273V85.4471V85.4489ZM99.2096 85.8269C97.8398 84.4517 97.8398 82.2269 99.2096 80.8553C99.8684 80.1911 100.765 79.8185 101.701 79.8185C102.637 79.8185 103.531 80.1911 104.19 80.8553C105.562 82.2287 105.562 84.4517 104.19 85.8251C103.533 86.4911 102.639 86.8655 101.703 86.8691C100.767 86.8691 99.8702 86.4983 99.2096 85.8359V85.8251V85.8269Z" fill="white"/>
<defs>
<filter id="filter0_d_33_4257" x="67.9359" y="46.7699" width="67.5063" height="73.1604" filterUnits="userSpaceOnUse" color-interpolation-filters="sRGB">
<feFlood flood-opacity="0" result="BackgroundImageFix"/>
<feColorMatrix in="SourceAlpha" type="matrix" values="0 0 0 0 0 0 0 0 0 0 0 0 0 0 0 0 0 0 127 0" result="hardAlpha"/>
<feOffset/>
<feGaussianBlur stdDeviation="3"/>
<feColorMatrix type="matrix" values="0 0 0 0 0.621405 0 0 0 0 0.215102 0 0 0 0 0 0 0 0 0.3 0"/>
<feBlend mode="normal" in2="BackgroundImageFix" result="effect1_dropShadow_33_4257"/>
<feBlend mode="normal" in="SourceGraphic" in2="effect1_dropShadow_33_4257" result="shape"/>
</filter>
<linearGradient id="paint0_linear_33_4257" x1="1964.15" y1="1975.95" x2="11796" y2="11807.9" gradientUnits="userSpaceOnUse">
<stop stop-color="#FFD800"/>
<stop offset="1" stop-color="#FFD800" stop-opacity="0"/>
</linearGradient>
<linearGradient id="paint1_linear_33_4257" x1="-685.066" y1="-686.678" x2="8910.09" y2="8908.48" gradientUnits="userSpaceOnUse">
<stop stop-color="#FFCC14"/>
<stop offset="1" stop-color="#FFB90A"/>
</linearGradient>
<linearGradient id="paint2_linear_33_4257" x1="400.513" y1="302.399" x2="1934.53" y2="1836.07" gradientUnits="userSpaceOnUse">
<stop stop-color="#C7DFFF"/>
<stop offset="1" stop-color="#A6CDFF"/>
</linearGradient>
<linearGradient id="paint3_linear_33_4257" x1="434.285" y1="1596.98" x2="1315.77" y2="2475.73" gradientUnits="userSpaceOnUse">
<stop stop-color="#C7DFFF"/>
<stop offset="1" stop-color="#A6CDFF"/>
</linearGradient>
</defs>
</svg>
