<svg width="181" height="181" viewBox="0 0 181 181" fill="none" xmlns="http://www.w3.org/2000/svg">
<path d="M29.0888 90.9083C46.1942 90.9155 62.3816 83.1809 73.1222 69.8699C83.8628 56.5589 88.001 39.1025 84.3776 22.3859C111.896 28.3385 130.85 53.6213 128.85 81.7049C126.849 109.788 104.503 132.126 76.418 134.121C48.3344 136.11 23.0588 117.149 17.1134 89.6285C21.0482 90.4763 25.064 90.9065 29.0888 90.9065V90.9083Z" fill="url(#paint0_linear_33_4258)"/>
<path d="M150.252 115.7V118.052L148.207 116.875C147.369 116.389 146.371 116.258 145.435 116.506C144.499 116.756 143.702 117.366 143.216 118.205C142.206 119.957 142.806 122.196 144.557 123.207L146.602 124.383L144.557 125.558C142.807 126.566 142.208 128.802 143.216 130.55C144.224 132.297 146.46 132.899 148.207 131.889L150.252 130.713V133.066C150.252 134.036 150.639 134.967 151.325 135.651C152.013 136.335 152.945 136.72 153.913 136.716C155.929 136.716 157.566 135.082 157.566 133.066V130.713L159.61 131.889C160.744 132.627 162.193 132.675 163.378 132.02C164.56 131.365 165.286 130.112 165.264 128.759C165.243 127.405 164.476 126.176 163.272 125.558L161.227 124.383L163.272 123.207C164.478 122.59 165.243 121.361 165.264 120.007C165.286 118.655 164.56 117.401 163.378 116.745C162.193 116.09 160.746 116.141 159.61 116.875L157.566 118.052V115.7C157.638 114.348 156.955 113.066 155.796 112.37C154.635 111.671 153.184 111.671 152.023 112.37C150.862 113.066 150.182 114.348 150.252 115.7Z" fill="url(#paint1_linear_33_4258)"/>
<path opacity="0.8" d="M134.727 142.986L133.552 143.67V142.311C133.552 141.148 132.609 140.205 131.446 140.205C130.888 140.205 130.351 140.426 129.959 140.822C129.565 141.218 129.347 141.753 129.347 142.311V143.672L128.172 142.988C127.164 142.404 125.875 142.75 125.292 143.758C124.712 144.766 125.058 146.055 126.066 146.638L127.241 147.313L126.066 147.988C125.061 148.571 124.719 149.855 125.299 150.861C125.565 151.358 126.024 151.723 126.568 151.869C127.111 152.016 127.693 151.934 128.172 151.638L129.349 150.954V152.313C129.295 153.1 129.682 153.851 130.355 154.259C131.028 154.67 131.872 154.67 132.546 154.259C133.219 153.851 133.608 153.1 133.552 152.313V150.953L134.727 151.638C135.381 152.016 136.185 152.015 136.835 151.638C137.488 151.26 137.89 150.566 137.89 149.813C137.89 149.059 137.487 148.364 136.835 147.988L135.658 147.313L136.835 146.638C137.843 146.055 138.189 144.766 137.607 143.758C137.026 142.75 135.735 142.404 134.727 142.986Z" fill="url(#paint2_linear_33_4258)"/>
<path d="M151.798 78.3911L140.782 81.3575L139.33 80.5187L135.127 76.1807L140.026 71.2721L140.782 70.8329L151.798 73.7885C152.932 74.2061 154.203 73.9505 155.085 73.1225C155.967 72.2945 156.306 71.0417 155.96 69.8825C155.614 68.7251 154.646 67.8611 153.454 67.6505L148.594 66.3545L153.157 63.7139C154.185 63.1649 154.831 62.0993 154.844 60.9347C154.857 59.7701 154.232 58.6901 153.219 58.1195C152.202 57.5471 150.956 57.5759 149.966 58.1915L145.405 60.8195L146.704 55.9631C147.127 54.8273 146.87 53.5493 146.04 52.6655C145.212 51.7817 143.952 51.4433 142.793 51.7943C141.632 52.1435 140.77 53.1209 140.568 54.3143L137.591 65.2997L136.138 66.1277L130.166 67.6325L128.51 61.7105V60.0329L136.579 51.9635C137.757 50.7071 137.724 48.7415 136.507 47.5265C135.289 46.3079 133.325 46.2755 132.069 47.4545L128.51 51.0005V45.7355C128.51 43.9715 127.081 42.5441 125.319 42.5441C123.556 42.5441 122.127 43.9733 122.127 45.7355V51.0023L118.579 47.4527C117.773 46.6463 116.599 46.3295 115.496 46.6247C114.394 46.9181 113.532 47.7767 113.235 48.8783C112.94 49.9799 113.253 51.1553 114.058 51.9635L122.127 60.0329V60.9023L120.327 67.6001L114.468 66.1277L113.016 65.2997L110.071 54.2747C109.867 53.0795 109.005 52.1021 107.844 51.7529C106.685 51.4037 105.427 51.7403 104.597 52.6241C103.769 53.5079 103.51 54.7841 103.933 55.9217L105.232 60.7799L100.671 58.1519C99.6812 57.5345 98.4356 57.5075 97.4204 58.0781C96.4034 58.6487 95.7806 59.7287 95.7932 60.8933C95.8058 62.0597 96.452 63.1253 97.4798 63.6743L102.041 66.3131L97.1126 67.6109C95.57 68.1869 94.7186 69.8393 95.1434 71.4269C95.57 73.0181 97.136 74.0225 98.7578 73.7489L109.783 70.7915L110.539 71.2325L115.438 76.1411L111.235 80.4773L109.783 81.3161L98.7578 78.3911C97.6238 77.9681 96.3458 78.2255 95.462 79.0535C94.5782 79.8833 94.2398 81.1415 94.5908 82.3025C94.94 83.4635 95.9174 84.3239 97.1108 84.5273L101.971 85.8251L97.4078 88.5161C95.8814 89.3981 95.3558 91.3493 96.2378 92.8775C97.1198 94.4057 99.071 94.9295 100.599 94.0475L105.16 91.4105L103.863 96.2687C103.639 97.0841 103.755 97.9553 104.176 98.6897C104.597 99.4223 105.294 99.9569 106.113 100.175C106.932 100.396 107.805 100.283 108.541 99.8579C109.275 99.4349 109.812 98.7347 110.029 97.9139L112.974 86.8997L113.73 86.4605L120.327 84.6911L122.097 91.2665V92.1359L114.027 100.205C112.782 101.454 112.785 103.476 114.033 104.721C115.282 105.967 117.303 105.963 118.549 104.716L122.097 101.166V106.433C122.097 108.197 123.526 109.625 125.288 109.625C127.052 109.625 128.479 108.195 128.479 106.433V101.166L132.038 104.716C133.294 105.893 135.26 105.861 136.477 104.644C137.694 103.425 137.726 101.462 136.549 100.205L128.51 92.1359V90.4691L130.166 84.6497L136.826 86.4695L137.591 86.9105L140.538 97.9265C140.867 99.1757 141.92 100.103 143.202 100.272C144.483 100.443 145.741 99.8219 146.388 98.7023C146.814 97.9697 146.928 97.0967 146.704 96.2777L145.405 91.4195L149.988 94.0295C151.489 94.7315 153.278 94.1663 154.106 92.7299C154.934 91.2917 154.52 89.4611 153.157 88.5161L148.596 85.8773L153.454 84.5777C154.644 84.3689 155.614 83.5049 155.96 82.3457C156.306 81.1901 155.967 79.9337 155.085 79.1093C154.203 78.2813 152.931 78.0239 151.797 78.4433V78.3893L151.798 78.3911ZM122.557 78.8105C121.053 77.3039 121.053 74.8649 122.557 73.3583C124.062 71.8535 126.503 71.8535 128.008 73.3583C129.513 74.8649 129.513 77.3039 128.008 78.8105C126.503 80.3153 124.062 80.3153 122.557 78.8105Z" fill="url(#paint3_linear_33_4258)"/>
<defs>
<linearGradient id="paint0_linear_33_4258" x1="10144.3" y1="10146.1" x2="5054.27" y2="5057.19" gradientUnits="userSpaceOnUse">
<stop stop-color="#7FAAFF"/>
<stop offset="1" stop-color="#7ABEF5"/>
</linearGradient>
<linearGradient id="paint1_linear_33_4258" x1="427.71" y1="348.316" x2="1940.73" y2="1860.89" gradientUnits="userSpaceOnUse">
<stop stop-color="#C7DFFF"/>
<stop offset="1" stop-color="#A6CDFF"/>
</linearGradient>
<linearGradient id="paint2_linear_33_4258" x1="270.751" y1="1965.44" x2="1138.25" y2="2829.02" gradientUnits="userSpaceOnUse">
<stop stop-color="#C7DFFF"/>
<stop offset="1" stop-color="#A6CDFF"/>
</linearGradient>
<linearGradient id="paint3_linear_33_4258" x1="574.191" y1="1197.2" x2="6208.5" y2="6273.47" gradientUnits="userSpaceOnUse">
<stop stop-color="#D9EAFF"/>
<stop offset="1" stop-color="#C5DDFF"/>
</linearGradient>
</defs>
</svg>
