<svg width="181" height="181" viewBox="0 0 181 181" fill="none" xmlns="http://www.w3.org/2000/svg">
<path opacity="0.3" d="M143.851 84.0665V83.9441C143.851 50.0537 116.378 22.5803 82.4894 22.5803C48.599 22.5803 21.1256 50.0537 21.1256 83.9423V84.9665C21.2264 117.97 48.6566 145.38 82.4876 145.38C116.32 145.38 143.751 117.97 143.851 84.9665V84.0665Z" fill="url(#paint0_linear_33_4255)"/>
<path d="M82.3868 135.622C110.928 135.622 134.065 112.485 134.065 83.9441C134.065 55.4031 110.928 32.2661 82.3868 32.2661C53.8458 32.2661 30.7088 55.4031 30.7088 83.9441C30.7088 112.485 53.8458 135.622 82.3868 135.622Z" fill="url(#paint1_linear_33_4255)"/>
<path d="M109.079 50.9609C110.713 50.9609 112.049 52.2389 112.143 53.8481L112.148 54.0281V95.6135C112.148 97.3073 110.775 98.6807 109.079 98.6807C107.445 98.6807 106.109 97.4027 106.017 95.7935L106.012 95.6135V54.0299C106.012 52.3343 107.385 50.9609 109.079 50.9609Z" fill="url(#paint2_linear_33_4255)"/>
<g opacity="0.8">
<path d="M109.592 103.795C111.225 103.795 112.562 105.073 112.654 106.682L112.659 106.862V117.59C112.659 119.285 111.286 120.659 109.592 120.659C107.958 120.659 106.622 119.381 106.528 117.772L106.523 117.592V106.864C106.523 105.168 107.896 103.795 109.592 103.795Z" fill="url(#paint3_linear_33_4255)"/>
</g>
<g opacity="0.9">
<path d="M121.351 72.6941C122.984 72.6941 124.321 74.1845 124.413 76.0637L124.419 76.2743V126.899C124.419 128.876 123.045 130.478 121.351 130.478C119.717 130.478 118.381 128.989 118.288 127.11L118.282 126.899V76.2743C118.282 74.2943 119.656 72.6941 121.351 72.6941Z" fill="url(#paint4_linear_33_4255)"/>
</g>
<path d="M96.8084 73.2864C98.441 73.2864 99.7766 74.5644 99.8684 76.1754L99.8756 76.3554V111.167C99.8756 112.863 98.5004 114.236 96.8066 114.236C95.1722 114.236 93.8366 112.958 93.743 111.349L93.7394 111.169V76.3554C93.7394 74.6616 95.1146 73.2864 96.8084 73.2864Z" fill="url(#paint5_linear_33_4255)"/>
<path opacity="0.8" d="M118.754 139.652V141.564L117.098 140.614C116.414 140.21 115.595 140.097 114.826 140.302C114.058 140.506 113.403 141.008 113.008 141.697C112.602 142.381 112.486 143.2 112.692 143.971C112.895 144.739 113.399 145.394 114.09 145.789L115.746 146.75L114.09 147.711C112.87 148.613 112.524 150.289 113.287 151.601C114.051 152.915 115.68 153.44 117.067 152.825L118.723 151.874V153.786C118.723 155.429 120.055 156.761 121.701 156.761C123.339 156.756 124.665 155.426 124.665 153.786V151.873L126.334 152.825C127.252 153.464 128.451 153.532 129.435 153.003C130.42 152.472 131.021 151.433 130.992 150.316C130.963 149.198 130.308 148.192 129.3 147.711L127.642 146.75L129.298 145.789C130.31 145.31 130.963 144.302 130.992 143.184C131.021 142.068 130.42 141.028 129.435 140.497C128.451 139.967 127.25 140.036 126.332 140.675L124.665 141.625V139.652C124.73 138.549 124.179 137.501 123.232 136.929C122.287 136.358 121.103 136.358 120.156 136.929C119.211 137.501 118.659 138.549 118.723 139.652H118.754Z" fill="url(#paint6_linear_33_4255)"/>
<path d="M166.159 100.492L164.11 108.244L163.088 108.838L158.997 109.861L157.729 105.145V104.533L163.405 98.8553C163.974 98.2847 164.193 97.4549 163.984 96.6773C163.776 95.9015 163.167 95.2949 162.39 95.0879C161.612 94.8809 160.782 95.1059 160.213 95.6747L157.719 98.1803V94.4777C157.639 93.2969 156.657 92.3789 155.474 92.3789C154.29 92.3789 153.309 93.2969 153.229 94.4777V98.1911L150.673 95.6747C149.779 94.8917 148.432 94.9367 147.595 95.7773C146.757 96.6179 146.715 97.9661 147.502 98.8553L153.177 104.531V105.708L152.032 109.891L147.819 108.867L146.796 108.273L144.75 100.522C144.566 99.7229 143.958 99.0857 143.169 98.8643C142.377 98.6411 141.529 98.8661 140.953 99.4529C140.377 100.038 140.167 100.893 140.404 101.678L141.324 105.094L138.113 103.242C137.038 102.643 135.683 103.017 135.067 104.083C134.452 105.148 134.806 106.509 135.863 107.139L139.074 108.991L135.658 109.9C134.457 110.224 133.746 111.457 134.068 112.658C134.391 113.857 135.624 114.569 136.824 114.247L144.577 112.202L145.108 112.508L148.555 115.964L145.599 119.033L144.577 119.617L136.824 117.572C135.661 117.338 134.518 118.049 134.211 119.192C133.903 120.338 134.535 121.526 135.658 121.908L139.074 122.828L135.863 124.68C134.806 125.31 134.452 126.671 135.067 127.736C135.683 128.802 137.038 129.176 138.113 128.575L141.324 126.714L140.404 130.13C140.08 131.331 140.793 132.564 141.994 132.886C143.194 133.21 144.429 132.497 144.75 131.297L146.796 123.544L147.327 123.238L152.043 121.978L153.208 126.07V127.247L147.532 132.922C146.658 133.797 146.658 135.217 147.532 136.092C148.407 136.969 149.827 136.969 150.702 136.092L153.208 133.597V137.3C153.152 138.139 153.568 138.938 154.284 139.373C155.004 139.811 155.904 139.811 156.622 139.373C157.339 138.938 157.756 138.139 157.699 137.3V133.516L160.194 136.011C160.617 136.436 161.191 136.675 161.788 136.677C162.696 136.672 163.511 136.123 163.858 135.286C164.204 134.447 164.013 133.484 163.374 132.841L157.699 127.164V126.552L158.946 121.917L163.579 123.155L164.11 123.461L166.155 131.214C166.31 131.79 166.686 132.281 167.203 132.578C167.719 132.875 168.331 132.956 168.907 132.8C169.483 132.647 169.975 132.271 170.272 131.754C170.569 131.237 170.65 130.624 170.493 130.048L169.582 126.633L172.794 128.494C173.861 129.04 175.17 128.651 175.767 127.612C176.365 126.572 176.043 125.245 175.033 124.597L171.822 122.747L175.249 121.825C176.37 121.444 177.004 120.256 176.696 119.111C176.388 117.966 175.245 117.257 174.082 117.491L166.319 119.536L165.297 118.952L162.341 115.883L165.779 112.427L166.31 112.121L174.072 114.166C174.849 114.373 175.677 114.152 176.246 113.583C176.815 113.016 177.038 112.186 176.829 111.41C176.62 110.635 176.014 110.028 175.238 109.819L171.813 108.908L175.024 107.058C176.032 106.41 176.356 105.083 175.756 104.043C175.159 103.004 173.852 102.616 172.783 103.161L169.572 105.011L170.482 101.597C170.689 100.823 170.466 99.9947 169.899 99.4295C169.33 98.8643 168.504 98.6429 167.73 98.8517C166.956 99.0605 166.353 99.6653 166.146 100.441L166.155 100.492H166.159ZM157.342 113.92C158.397 114.982 158.397 116.695 157.342 117.755C156.28 118.81 154.569 118.81 153.508 117.755C152.995 117.248 152.707 116.558 152.707 115.838C152.707 115.118 152.995 114.427 153.507 113.92C154.014 113.408 154.704 113.12 155.424 113.12C156.144 113.12 156.835 113.408 157.342 113.92Z" fill="url(#paint7_linear_33_4255)"/>
<defs>
<linearGradient id="paint0_linear_33_4255" x1="1961.05" y1="1975.95" x2="11792.9" y2="11807.8" gradientUnits="userSpaceOnUse">
<stop stop-color="#FFD800"/>
<stop offset="1" stop-color="#FFD800" stop-opacity="0"/>
</linearGradient>
<linearGradient id="paint1_linear_33_4255" x1="-688.236" y1="-686.678" x2="8906.92" y2="8908.48" gradientUnits="userSpaceOnUse">
<stop stop-color="#FFCC14"/>
<stop offset="1" stop-color="#FFB90A"/>
</linearGradient>
<linearGradient id="paint2_linear_33_4255" x1="412.822" y1="5175.02" x2="412.822" y2="-301.116" gradientUnits="userSpaceOnUse">
<stop stop-color="#61ADFF" stop-opacity="0.8"/>
<stop offset="0.04" stop-color="#5FABFF" stop-opacity="0.83"/>
<stop offset="0.2" stop-color="#5AA7FF" stop-opacity="0.9"/>
<stop offset="0.38" stop-color="#57A4FF" stop-opacity="0.96"/>
<stop offset="0.61" stop-color="#55A2FF" stop-opacity="0.99"/>
<stop offset="1" stop-color="#54A1FF"/>
</linearGradient>
<linearGradient id="paint3_linear_33_4255" x1="413.333" y1="2272.51" x2="413.333" y2="-378.505" gradientUnits="userSpaceOnUse">
<stop stop-color="#61ADFF" stop-opacity="0.6"/>
<stop offset="0.11" stop-color="#5DA9FF" stop-opacity="0.73"/>
<stop offset="0.23" stop-color="#5AA6FF" stop-opacity="0.83"/>
<stop offset="0.36" stop-color="#57A4FF" stop-opacity="0.9"/>
<stop offset="0.5" stop-color="#55A2FF" stop-opacity="0.96"/>
<stop offset="0.68" stop-color="#54A1FF" stop-opacity="0.99"/>
<stop offset="1" stop-color="#54A1FF"/>
</linearGradient>
<linearGradient id="paint4_linear_33_4255" x1="425.092" y1="6236.49" x2="425.092" y2="-312.563" gradientUnits="userSpaceOnUse">
<stop stop-color="#61ADFF" stop-opacity="0.9"/>
<stop offset="0.01" stop-color="#61ADFF" stop-opacity="0.9"/>
<stop offset="0.24" stop-color="#59A6FF" stop-opacity="0.96"/>
<stop offset="0.52" stop-color="#55A2FF" stop-opacity="0.99"/>
<stop offset="1" stop-color="#54A1FF"/>
</linearGradient>
<linearGradient id="paint5_linear_33_4255" x1="400.549" y1="4529.18" x2="400.549" y2="-287.606" gradientUnits="userSpaceOnUse">
<stop stop-color="#61ADFF" stop-opacity="0.8"/>
<stop offset="0.04" stop-color="#5FABFF" stop-opacity="0.83"/>
<stop offset="0.2" stop-color="#5AA7FF" stop-opacity="0.9"/>
<stop offset="0.38" stop-color="#57A4FF" stop-opacity="0.96"/>
<stop offset="0.61" stop-color="#55A2FF" stop-opacity="0.99"/>
<stop offset="1" stop-color="#54A1FF"/>
</linearGradient>
<linearGradient id="paint6_linear_33_4255" x1="344.538" y1="329.197" x2="1577.86" y2="1562.03" gradientUnits="userSpaceOnUse">
<stop stop-color="#C7DFFF"/>
<stop offset="1" stop-color="#A6CDFF"/>
</linearGradient>
<linearGradient id="paint7_linear_33_4255" x1="908.312" y1="2007.05" x2="3871.35" y2="4957.32" gradientUnits="userSpaceOnUse">
<stop stop-color="#C7DFFF"/>
<stop offset="1" stop-color="#A6CDFF"/>
</linearGradient>
</defs>
</svg>
