<svg width="181" height="181" viewBox="0 0 181 181" fill="none" xmlns="http://www.w3.org/2000/svg">
<path d="M52.829 31.2419C54.7406 31.2419 56.303 32.7395 56.4038 34.6259L56.4092 34.8239V100.277C56.4092 102.254 54.8072 103.856 52.829 103.856C50.9192 103.856 49.3568 102.358 49.256 100.472L49.2506 100.277V34.8221C49.2506 32.8457 50.8526 31.2419 52.829 31.2419Z" fill="url(#paint0_linear_33_4248)"/>
<g opacity="0.7">
<path d="M52.8308 112.039C54.7406 112.039 56.303 113.536 56.4038 115.423L56.4092 115.619V124.822C56.4092 126.8 54.8072 128.402 52.8308 128.402C50.9192 128.402 49.3568 126.905 49.256 125.018L49.2506 124.822V115.621C49.2506 113.641 50.8526 112.039 52.8308 112.039Z" fill="url(#paint1_linear_33_4248)"/>
</g>
<g opacity="0.9">
<path d="M69.1929 50.673C71.1027 50.673 72.6651 52.1706 72.7659 54.057L72.7713 54.2532V139.139C72.7713 141.116 71.1693 142.718 69.1929 142.718C67.2813 142.718 65.7189 141.22 65.6181 139.334L65.6127 139.139V54.2514C65.6127 52.275 67.2147 50.673 69.1929 50.673Z" fill="url(#paint2_linear_33_4248)"/>
</g>
<path d="M36.4652 74.1989C38.3768 74.1989 39.9392 75.6947 40.04 77.5811L40.0454 77.7773V116.639C40.0454 118.618 38.4434 120.221 36.4652 120.221C34.5554 120.221 32.993 118.722 32.8922 116.837L32.8868 116.639V77.7773C32.8868 75.7991 34.4888 74.1989 36.4652 74.1989Z" fill="url(#paint3_linear_33_4248)"/>
<path opacity="0.9" d="M119.195 130.508L121.526 131.858L119.195 133.208C118.234 133.763 117.535 134.675 117.249 135.746C116.963 136.817 117.114 137.957 117.67 138.914C118.225 139.876 119.137 140.576 120.208 140.86C121.278 141.148 122.419 140.995 123.376 140.439L125.709 139.1V141.789C125.634 143.332 126.411 144.79 127.736 145.583C129.061 146.377 130.713 146.377 132.038 145.583C133.361 144.791 134.14 143.332 134.065 141.789V139.1L136.396 140.439C138.397 141.591 140.952 140.911 142.114 138.916C143.263 136.916 142.577 134.362 140.579 133.21L138.248 131.86L140.579 130.51C141.92 129.785 142.762 128.39 142.777 126.867C142.791 125.342 141.978 123.933 140.649 123.184C139.323 122.435 137.694 122.468 136.396 123.267L134.065 124.617V121.928C134.14 120.387 133.363 118.927 132.038 118.133C130.713 117.341 129.061 117.341 127.736 118.133C126.411 118.927 125.634 120.387 125.709 121.928V124.617L123.398 123.289C121.407 122.214 118.923 122.92 117.791 124.878C116.659 126.836 117.291 129.342 119.215 130.53L119.195 130.508Z" fill="url(#paint4_linear_33_4248)"/>
<path opacity="0.8" d="M94.2506 103.773L93.2264 105.523L92.204 103.775C91.34 102.284 89.4338 101.771 87.9398 102.63C87.2198 103.048 86.6942 103.737 86.4854 104.543C86.2766 105.352 86.3972 106.208 86.8256 106.925L87.848 108.664H85.8014C84.1454 108.757 82.8512 110.129 82.8512 111.788C82.8512 113.446 84.1472 114.818 85.8032 114.911H87.848L86.8256 116.65C86.408 117.37 86.2928 118.223 86.5088 119.026C86.7248 119.829 87.2504 120.513 87.9704 120.925C89.4644 121.784 91.3724 121.271 92.2364 119.78L93.2588 118.031L94.2812 119.78C94.8068 120.812 95.858 121.469 97.0172 121.49C98.1746 121.508 99.2492 120.887 99.8072 119.874C100.369 118.861 100.324 117.62 99.6902 116.652L98.6678 114.911H100.714C102.37 114.818 103.665 113.446 103.665 111.788C103.665 110.129 102.369 108.757 100.713 108.664H98.6678L99.6902 106.925C100.324 105.955 100.369 104.714 99.809 103.703C99.2474 102.688 98.1746 102.067 97.0154 102.086C95.858 102.104 94.8068 102.763 94.2794 103.796L94.2506 103.773Z" fill="url(#paint5_linear_33_4248)"/>
<path d="M131.332 43.7196L128.429 54.5916L126.998 55.4196L121.22 56.8722L119.44 50.2662V49.4058L127.396 41.4696C128.589 40.2348 128.573 38.2728 127.36 37.0578C126.148 35.8428 124.185 35.8212 122.948 37.011L119.44 40.5192V35.3352C119.28 33.7224 117.924 32.4948 116.304 32.4948C114.684 32.4948 113.331 33.7224 113.17 35.3334V40.53L109.662 37.02C108.435 35.7834 106.435 35.778 105.198 37.0056C103.962 38.235 103.954 40.233 105.184 41.4696L113.17 49.4076V51.0528L111.504 56.9028L105.612 55.4196L104.181 54.5916L101.235 43.7196C100.992 42.582 100.138 41.6712 99.0206 41.3508C97.8992 41.0322 96.695 41.3562 95.8868 42.195C95.0786 43.0338 94.7996 44.2488 95.1596 45.3558L96.4376 50.1438L91.9376 47.5446C90.4418 46.7526 88.5842 47.2836 87.7364 48.7506C86.8868 50.2194 87.353 52.095 88.7894 52.9968L93.2894 55.5942L88.5014 56.8722C86.921 57.3978 86.0228 59.0664 86.453 60.6756C86.885 62.2866 88.496 63.282 90.1286 62.9472L101.001 60.0419L101.746 60.474L106.584 65.3196L102.432 69.5946L101.001 70.4226L90.1286 67.5084C89.0306 67.2186 87.8642 67.5354 87.065 68.3382C86.2658 69.1428 85.9544 70.3128 86.2514 71.4072C86.5484 72.5016 87.4052 73.3548 88.5014 73.6446L93.2894 74.9226L88.7894 77.5218C87.281 78.3912 86.7626 80.3189 87.6338 81.8273C88.5032 83.3357 90.431 83.8524 91.9394 82.983L96.4394 80.3334L95.1614 85.1214C94.8698 86.205 95.1794 87.3624 95.975 88.158C96.7688 88.95 97.928 89.2614 99.0116 88.9698C100.097 88.68 100.945 87.8322 101.235 86.7468L104.151 75.8748L104.896 75.4446L111.514 73.686L113.17 79.4135V81.0696L105.214 89.0255C104.091 90.2711 104.14 92.1792 105.326 93.3636C106.51 94.5498 108.417 94.5983 109.664 93.4751L113.17 89.9669V95.1636C113.17 96.9024 114.582 98.3136 116.32 98.3136C118.059 98.3136 119.47 96.9024 119.47 95.1636V89.9669L122.979 93.4769C124.224 94.5983 126.129 94.5498 127.317 93.3636C128.501 92.1792 128.55 90.2711 127.426 89.0255L119.47 81.0714V80.2019L121.22 73.7184L127.714 75.4464L128.46 75.8765L131.365 86.7486C131.815 88.428 133.539 89.4269 135.22 88.9769C136.896 88.5233 137.893 86.8008 137.451 85.1214L136.14 80.3352L140.64 82.9326C142.147 83.775 144.049 83.2493 144.91 81.7535C145.77 80.2595 145.266 78.3498 143.781 77.4714L139.281 74.874L144.076 73.596C145.772 73.1442 146.778 71.4036 146.326 69.708C145.876 68.016 144.136 67.008 142.44 67.458L131.579 70.4244L130.157 69.5964L126.006 65.3214L130.832 60.474L131.579 60.0438L142.44 62.949C143.671 63.2802 144.978 62.8373 145.756 61.8275C146.533 60.8195 146.625 59.4408 145.99 58.3356C145.57 57.6138 144.883 57.0846 144.076 56.8632L139.281 55.5852L143.781 52.9878C144.822 52.4622 145.486 51.4038 145.509 50.2374C145.531 49.071 144.906 47.9874 143.887 47.4222C142.867 46.857 141.619 46.9002 140.64 47.5374L136.14 50.1348L137.418 45.3468C137.872 43.6548 136.864 41.9142 135.168 41.4624C133.476 41.0106 131.736 42.0168 131.282 43.7124L131.334 43.7214L131.332 43.7196ZM119.011 62.5169C119.733 63.2387 120.14 64.218 120.14 65.2386C120.14 66.2592 119.733 67.2366 119.011 67.9584C118.291 68.6802 117.312 69.087 116.292 69.087C115.271 69.087 114.294 68.6802 113.572 67.9584C112.85 67.2384 112.443 66.2592 112.443 65.2386C112.443 64.218 112.85 63.2405 113.572 62.5169C114.292 61.7969 115.271 61.3901 116.292 61.3901C117.312 61.3901 118.29 61.7951 119.011 62.5169Z" fill="url(#paint6_linear_33_4248)"/>
<defs>
<linearGradient id="paint0_linear_33_4248" x1="407.181" y1="7689.75" x2="407.181" y2="-365.883" gradientUnits="userSpaceOnUse">
<stop stop-color="#61ADFF" stop-opacity="0.6"/>
<stop offset="0.11" stop-color="#5DA9FF" stop-opacity="0.73"/>
<stop offset="0.23" stop-color="#5AA6FF" stop-opacity="0.83"/>
<stop offset="0.36" stop-color="#57A4FF" stop-opacity="0.9"/>
<stop offset="0.5" stop-color="#55A2FF" stop-opacity="0.96"/>
<stop offset="0.68" stop-color="#54A1FF" stop-opacity="0.99"/>
<stop offset="1" stop-color="#54A1FF"/>
</linearGradient>
<linearGradient id="paint1_linear_33_4248" x1="407.181" y1="2384.79" x2="407.181" y2="-524.333" gradientUnits="userSpaceOnUse">
<stop stop-color="#61ADFF" stop-opacity="0.6"/>
<stop offset="0.11" stop-color="#5DA9FF" stop-opacity="0.73"/>
<stop offset="0.23" stop-color="#5AA6FF" stop-opacity="0.83"/>
<stop offset="0.36" stop-color="#57A4FF" stop-opacity="0.9"/>
<stop offset="0.5" stop-color="#55A2FF" stop-opacity="0.96"/>
<stop offset="0.68" stop-color="#54A1FF" stop-opacity="0.99"/>
<stop offset="1" stop-color="#54A1FF"/>
</linearGradient>
<linearGradient id="paint2_linear_33_4248" x1="423.543" y1="9643.31" x2="423.543" y2="-337.48" gradientUnits="userSpaceOnUse">
<stop stop-color="#61ADFF" stop-opacity="0.5"/>
<stop offset="0.07" stop-color="#5EABFF" stop-opacity="0.6"/>
<stop offset="0.17" stop-color="#5BA8FF" stop-opacity="0.72"/>
<stop offset="0.28" stop-color="#59A5FF" stop-opacity="0.83"/>
<stop offset="0.4" stop-color="#57A3FF" stop-opacity="0.9"/>
<stop offset="0.54" stop-color="#55A2FF" stop-opacity="0.96"/>
<stop offset="0.71" stop-color="#54A1FF" stop-opacity="0.99"/>
<stop offset="1" stop-color="#54A1FF"/>
</linearGradient>
<linearGradient id="paint3_linear_33_4248" x1="390.817" y1="5100.55" x2="390.817" y2="-349.732" gradientUnits="userSpaceOnUse">
<stop stop-color="#61ADFF" stop-opacity="0.5"/>
<stop offset="0.07" stop-color="#5EABFF" stop-opacity="0.6"/>
<stop offset="0.17" stop-color="#5BA8FF" stop-opacity="0.72"/>
<stop offset="0.28" stop-color="#59A5FF" stop-opacity="0.83"/>
<stop offset="0.4" stop-color="#57A3FF" stop-opacity="0.9"/>
<stop offset="0.54" stop-color="#55A2FF" stop-opacity="0.96"/>
<stop offset="0.71" stop-color="#54A1FF" stop-opacity="0.99"/>
<stop offset="1" stop-color="#54A1FF"/>
</linearGradient>
<linearGradient id="paint4_linear_33_4248" x1="461.591" y1="386.721" x2="2174.75" y2="2099" gradientUnits="userSpaceOnUse">
<stop stop-color="#C7DFFF"/>
<stop offset="1" stop-color="#A6CDFF"/>
</linearGradient>
<linearGradient id="paint5_linear_33_4248" x1="252.127" y1="315.345" x2="1579.93" y2="1642.17" gradientUnits="userSpaceOnUse">
<stop stop-color="#C7DFFF"/>
<stop offset="1" stop-color="#A6CDFF"/>
</linearGradient>
<linearGradient id="paint6_linear_33_4248" x1="747.924" y1="1946.7" x2="4938.44" y2="6121" gradientUnits="userSpaceOnUse">
<stop stop-color="#C7DFFF"/>
<stop offset="1" stop-color="#A6CDFF"/>
</linearGradient>
</defs>
</svg>
