<svg width="181" height="181" viewBox="0 0 181 181" fill="none" xmlns="http://www.w3.org/2000/svg">
<path d="M46.8171 103.226C63.9747 103.228 80.2107 95.4665 90.9801 82.1123C101.751 68.7562 105.897 51.2441 102.259 34.4771C129.826 40.4783 148.791 65.8222 146.778 93.9598C144.762 122.099 122.379 144.482 94.2399 146.498C66.1023 148.512 40.7583 129.544 34.7571 101.979C38.7207 102.825 42.7635 103.242 46.8171 103.226Z" fill="url(#paint0_linear_33_4242)"/>
<path fill-rule="evenodd" clip-rule="evenodd" d="M61.9173 51.7013C58.8987 58.9841 56.4543 61.4321 49.1697 64.4489C56.4543 67.4657 58.8987 69.9119 61.9173 77.1965C64.9341 69.9119 67.3803 67.4657 74.6649 64.4489C67.3803 61.4321 64.9341 58.9841 61.9173 51.7013Z" fill="#FFDD1C"/>
<defs>
<linearGradient id="paint0_linear_33_4242" x1="10040.3" y1="10036" x2="4873.42" y2="4869.02" gradientUnits="userSpaceOnUse">
<stop stop-color="#7FAAFF"/>
<stop offset="1" stop-color="#7ABEF5"/>
</linearGradient>
</defs>
</svg>
